<svg width="24" height="24" viewBox="0 0 24 24" fill="none" xmlns="http://www.w3.org/2000/svg">
    <path d="M5.82535 4.31318C5.40777 3.89561 4.73076 3.89561 4.31318 4.31318C3.89561 4.73076 3.89561 5.40777 4.31318 5.82535L10.4879 12L4.31324 18.1747C3.89567 18.5922 3.89567 19.2693 4.31324 19.6868C4.73082 20.1044 5.40783 20.1044 5.8254 19.6868L12 13.5122L18.1747 19.6868C18.5922 20.1044 19.2693 20.1044 19.6868 19.6868C20.1044 19.2693 20.1044 18.5922 19.6868 18.1747L13.5122 12L19.6869 5.82535C20.1045 5.40777 20.1045 4.73076 19.6869 4.31318C19.2694 3.89561 18.5923 3.89561 18.1748 4.31318L12 10.4879L5.82535 4.31318Z" fill="#E0E3E7"/>
</svg>