<svg xmlns="http://www.w3.org/2000/svg" width="18" height="18" viewBox="0 0 18 18" fill="none">
    <mask id="path-2-outside-1_8118_14690" maskUnits="userSpaceOnUse" x="3" y="5" width="12" height="8" fill="black">
        <rect fill="white" x="3" y="5" width="12" height="8"/>
        <path fill-rule="evenodd" clip-rule="evenodd" d="M8.99997 10.2039L12.9377 6.186C13.1807 5.93805 13.5747 5.93805 13.8177 6.186C14.0607 6.43395 14.0607 6.83594 13.8177 7.08389L8.99961 12L8.11964 11.1021L8.11999 11.1017L4.18225 7.08385C3.93925 6.83591 3.93925 6.43391 4.18225 6.18596C4.42525 5.93802 4.81923 5.93802 5.06223 6.18596L8.99997 10.2039Z"/>
    </mask>
    <path fill-rule="evenodd" clip-rule="evenodd" d="M8.99997 10.2039L12.9377 6.186C13.1807 5.93805 13.5747 5.93805 13.8177 6.186C14.0607 6.43395 14.0607 6.83594 13.8177 7.08389L8.99961 12L8.11964 11.1021L8.11999 11.1017L4.18225 7.08385C3.93925 6.83591 3.93925 6.43391 4.18225 6.18596C4.42525 5.93802 4.81923 5.93802 5.06223 6.18596L8.99997 10.2039Z" fill="#E0E3E7"/>
    <path d="M8.99997 10.2039L8.85713 10.3438L8.99997 10.4896L9.14281 10.3438L8.99997 10.2039ZM12.9377 6.186L13.0805 6.32599L12.9377 6.186ZM13.8177 6.186L13.9605 6.04601H13.9605L13.8177 6.186ZM13.8177 7.08389L13.9605 7.22388L13.8177 7.08389ZM8.99961 12L8.85678 12.14L8.99961 12.2857L9.14245 12.14L8.99961 12ZM8.11964 11.1021L7.97676 10.9622L7.83964 11.1021L7.9768 11.2421L8.11964 11.1021ZM8.11999 11.1017L8.26287 11.2417L8.39999 11.1017L8.26283 10.9618L8.11999 11.1017ZM4.18225 7.08385L4.03941 7.22384L4.18225 7.08385ZM4.18225 6.18596L4.32509 6.32595L4.18225 6.18596ZM5.06223 6.18596L5.20507 6.04597L5.06223 6.18596ZM9.14281 10.3438L13.0805 6.32599L12.7948 6.04601L8.85713 10.0639L9.14281 10.3438ZM13.0805 6.32599C13.2451 6.15806 13.5102 6.15806 13.6748 6.32599L13.9605 6.04601C13.6391 5.71805 13.1163 5.71805 12.7948 6.04601L13.0805 6.32599ZM13.6748 6.32599C13.8416 6.49617 13.8416 6.77372 13.6748 6.9439L13.9605 7.22388C14.2797 6.89817 14.2797 6.37172 13.9605 6.04601L13.6748 6.32599ZM13.6748 6.9439L8.85678 11.86L9.14245 12.14L13.9605 7.22388L13.6748 6.9439ZM9.14245 11.86L8.26247 10.9621L7.9768 11.2421L8.85678 12.14L9.14245 11.86ZM8.26251 11.2421L8.26287 11.2417L7.97712 10.9618L7.97676 10.9622L8.26251 11.2421ZM8.26283 10.9618L4.32509 6.94386L4.03941 7.22384L7.97716 11.2417L8.26283 10.9618ZM4.32509 6.94386C4.1583 6.77368 4.1583 6.49613 4.32509 6.32595L4.03941 6.04597C3.7202 6.37168 3.7202 6.89813 4.03941 7.22384L4.32509 6.94386ZM4.32509 6.32595C4.48967 6.15802 4.75481 6.15802 4.91939 6.32595L5.20507 6.04597C4.88365 5.71801 4.36083 5.71801 4.03941 6.04597L4.32509 6.32595ZM4.91939 6.32595L8.85713 10.3438L9.14281 10.0639L5.20507 6.04597L4.91939 6.32595Z" fill="#E0E3E7" mask="url(#path-2-outside-1_8118_14690)"/>
</svg>