<svg xmlns="http://www.w3.org/2000/svg" width="14" height="14" viewBox="0 0 14 14" fill="none">
    <path d="M1.59718 0.274029C1.2318 -0.0913431 0.639411 -0.0913431 0.274029 0.274029C-0.0913431 0.639411 -0.0913431 1.2318 0.274029 1.59718L5.67688 7.00002L0.274085 12.4029C-0.0912869 12.7682 -0.0912869 13.3606 0.274085 13.726C0.639467 14.0913 1.23185 14.0913 1.59723 13.726L7.00002 8.32315L12.4029 13.726C12.7682 14.0913 13.3606 14.0913 13.726 13.726C14.0913 13.3606 14.0913 12.7682 13.726 12.4029L8.32315 7.00002L13.7261 1.59718C14.0914 1.2318 14.0914 0.639411 13.7261 0.274029C13.3607 -0.0913431 12.7683 -0.0913431 12.4029 0.274029L7.00002 5.67688L1.59718 0.274029Z" fill="#E0E3E7"/>
</svg>