<svg xmlns="http://www.w3.org/2000/svg" width="16" height="16" viewBox="0 0 16 16" fill="none">
    <path d="M1.82534 0.313176C1.40776 -0.104392 0.730751 -0.104392 0.313174 0.313176C-0.104391 0.730755 -0.104391 1.40777 0.313174 1.82535L6.48782 8.00002L0.313238 14.1747C-0.104327 14.5922 -0.104327 15.2693 0.313238 15.6868C0.730815 16.1044 1.40782 16.1044 1.82539 15.6868L7.99997 9.51217L14.1746 15.6868C14.5921 16.1044 15.2692 16.1044 15.6867 15.6868C16.1043 15.2693 16.1043 14.5922 15.6867 14.1747L9.51211 8.00002L15.6868 1.82535C16.1044 1.40777 16.1044 0.730755 15.6868 0.313176C15.2693 -0.104392 14.5922 -0.104392 14.1747 0.313176L7.99997 6.48787L1.82534 0.313176Z" fill="#EC3232"/>
</svg>