<svg xmlns="http://www.w3.org/2000/svg" width="24" height="20" viewBox="0 0 24 20" fill="none">
    <path d="M24 0.0441895V5.20187C24 6.79469 23.7188 8.43807 23.1565 10.132C22.5687 11.8512 21.7636 13.482 20.7412 15.0242C19.6933 16.5918 18.5048 17.9317 17.1757 19.0442L12.5751 16.1999C13.5974 14.6071 14.4409 12.9258 15.1054 11.156C15.7444 9.41146 16.0639 7.4394 16.0639 5.2398V0.0441895H24ZM11.4249 0.0441895V5.20187C11.4249 6.79469 11.1438 8.43807 10.5815 10.132C9.99361 11.8512 9.1885 13.482 8.16613 15.0242C7.11821 16.5918 5.92971 17.9317 4.60064 19.0442L0 16.1999C1.02236 14.6071 1.86581 12.9258 2.53035 11.156C3.16933 9.41146 3.48882 7.4394 3.48882 5.2398V0.0441895H11.4249Z" fill="#F2705B"/>
</svg>