<svg xmlns="http://www.w3.org/2000/svg" width="44" height="44" viewBox="0 0 44 44" fill="none">
    <path d="M26.6247 22.7809C27.056 22.4359 27.1259 21.8066 26.7809 21.3753C26.4359 20.944 25.8066 20.8741 25.3753 21.2191C23.6325 22.6134 22.1381 24.2923 20.9552 26.1849L20.911 26.2556C20.2255 25.4561 19.4329 24.7534 18.5547 24.1679C18.0952 23.8616 17.4743 23.9858 17.1679 24.4453C16.8616 24.9048 16.9858 25.5257 17.4453 25.8321C18.3437 26.431 19.1338 27.1784 19.7817 28.0422L20.2 28.6C20.3978 28.8638 20.713 29.0131 21.0424 28.9991C21.3719 28.9851 21.6732 28.8096 21.848 28.53L22.6512 27.2449C23.7145 25.5435 25.058 24.0342 26.6247 22.7809Z" fill="#B931E9"/>
    <path fill-rule="evenodd" clip-rule="evenodd" d="M17 10C17.5523 10 18 10.4477 18 11V11.1506C19.165 11.0436 20.4915 11 22 11C23.5085 11 24.835 11.0436 26 11.1506V11C26 10.4477 26.4477 10 27 10C27.5523 10 28 10.4477 28 11V11.4302C32.8603 12.4003 34 15.2658 34 22.5C34 32.0833 32 34 22 34C12 34 10 32.0833 10 22.5C10 15.2658 11.1397 12.4003 16 11.4302V11C16 10.4477 16.4477 10 17 10ZM26 13.1596V14C26 14.5523 26.4477 15 27 15C27.5523 15 28 14.5523 28 14V13.4767C29.1834 13.7572 29.8937 14.1475 30.3662 14.6002C30.8713 15.0843 31.292 15.8195 31.5801 17.0993C31.6276 17.3104 31.6707 17.5327 31.7096 17.767C25.2761 16.7552 18.7239 16.7552 12.2904 17.767C12.3293 17.5327 12.3724 17.3104 12.4199 17.0993C12.708 15.8195 13.1287 15.0843 13.6338 14.6002C14.1063 14.1475 14.8166 13.7572 16 13.4767V14C16 14.5523 16.4477 15 17 15C17.5523 15 18 14.5523 18 14V13.1596C19.1091 13.0492 20.4268 13 22 13C23.5732 13 24.8909 13.0492 26 13.1596ZM31.5801 27.9007C31.8743 26.5934 32 24.8543 32 22.5C32 21.5041 31.9775 20.6182 31.9293 19.8286C25.355 18.7346 18.645 18.7346 12.0707 19.8286C12.0225 20.6182 12 21.5041 12 22.5C12 24.8543 12.1257 26.5934 12.4199 27.9007C12.708 29.1805 13.1287 29.9157 13.6338 30.3998C14.1463 30.8909 14.9386 31.3085 16.3111 31.5922C17.7013 31.8795 19.5378 32 22 32C24.4622 32 26.2987 31.8795 27.6889 31.5922C29.0614 31.3085 29.8537 30.8909 30.3662 30.3998C30.8713 29.9157 31.292 29.1805 31.5801 27.9007Z" fill="#B931E9"/>
</svg>