<svg xmlns="http://www.w3.org/2000/svg" width="44" height="44" viewBox="0 0 44 44" fill="none">
    <path fill-rule="evenodd" clip-rule="evenodd" d="M25.3856 22.1059C24.4862 22.9687 23.2571 23.5003 21.9019 23.5003C20.5467 23.5003 19.3176 22.9687 18.4182 22.1059C17.5241 22.9684 16.2993 23.5003 14.9484 23.5003C7.20458 23.5003 9.90224 13.5003 13.9023 11.5002C17.9024 9.50015 25.9025 9.49976 29.9023 11.5C33.9022 13.5003 36.5992 23.5003 28.8553 23.5003C27.5044 23.5003 26.2797 22.9684 25.3856 22.1059ZM24.0011 20.6626C24.7765 19.9188 26.0009 19.9206 26.7742 20.6665C27.3073 21.1808 28.0386 21.5003 28.8553 21.5003C30.34 21.5003 30.9796 21.0416 31.2855 20.6585C31.6406 20.2138 31.8682 19.4651 31.7883 18.3998C31.7096 17.3506 31.3406 16.1976 30.7774 15.2089C30.1996 14.1947 29.5335 13.5517 29.0078 13.2888C27.399 12.4843 24.75 11.9999 21.9025 12C19.055 12.0001 16.4058 12.4845 14.7968 13.2891C14.271 13.552 13.6049 14.1949 13.027 15.2091C12.4637 16.1978 12.0946 17.3508 12.0158 18.4C11.9358 19.4653 12.1633 20.2139 12.5184 20.6586C12.8243 21.0416 13.4637 21.5003 14.9484 21.5003C15.7652 21.5003 16.4965 21.1808 17.0296 20.6665C17.8028 19.9205 19.0274 19.9188 19.8027 20.6626C20.3415 21.1795 21.0788 21.5003 21.9019 21.5003C22.725 21.5003 23.4623 21.1795 24.0011 20.6626Z" fill="#EC4444"/>
    <path fill-rule="evenodd" clip-rule="evenodd" d="M11.002 21.9637C11.0007 22.1398 11 22.3186 11 22.5002C11 32.0835 12.8333 34.0002 22 34.0002C31.1667 34.0002 33 32.0835 33 22.5002C33 22.2306 32.9985 21.9671 32.9955 21.7095C32.545 22.3555 31.891 22.8693 30.9966 23.178C30.9758 25.1987 30.8579 26.7419 30.6116 27.9359C30.342 29.2425 29.9474 29.9856 29.4922 30.4615C29.0444 30.9296 28.3588 31.3264 27.146 31.5999C26.7741 31.6838 26.365 31.7533 25.9137 31.8096C25.6488 26.2547 24.6975 25 22.0006 25C19.3036 25 18.3523 26.2548 18.0874 31.8097C17.6357 31.7534 17.2262 31.6838 16.854 31.5999C15.6412 31.3264 14.9556 30.9296 14.5078 30.4615C14.0526 29.9856 13.658 29.2425 13.3884 27.9359C13.1447 26.7544 13.0267 25.2311 13.0041 23.2414C12.1334 22.9802 11.4762 22.5343 11.002 21.9637ZM22.0001 32C21.3087 32 20.6711 31.9888 20.0823 31.9646C20.1249 31.0489 20.1855 30.2748 20.2671 29.6195C20.4019 28.5377 20.5808 27.8994 20.7546 27.5258C20.9014 27.2101 21.0081 27.1554 21.0484 27.1347L21.0507 27.1336C21.1465 27.0842 21.3941 27 22.0006 27C22.607 27 22.8547 27.0842 22.9505 27.1336L22.9527 27.1347C22.993 27.1554 23.0997 27.2101 23.2465 27.5258C23.4203 27.8994 23.5992 28.5377 23.734 29.6195C23.8156 30.2747 23.8762 31.0488 23.9188 31.9645C23.3298 31.9887 22.6919 32 22.0001 32Z" fill="#EC4444"/>
</svg>