<svg xmlns="http://www.w3.org/2000/svg" width="48" height="48" viewBox="0 0 48 48" fill="none">
    <rect width="48" height="48" rx="8" fill="white" fill-opacity="0.1"/>
    <path d="M31.1243 24.2394C31.1508 22.1724 32.2566 20.2166 34.0107 19.134C32.9041 17.5474 31.0506 16.5414 29.1222 16.4809C27.0654 16.2641 25.0714 17.7164 24.0233 17.7164C22.9549 17.7164 21.3412 16.5024 19.6035 16.5383C17.3385 16.6117 15.2269 17.9045 14.1249 19.8925C11.756 24.0098 13.523 30.0608 15.7921 33.3889C16.9274 35.0186 18.2543 36.839 19.9904 36.7744C21.6894 36.7037 22.3239 35.6868 24.3746 35.6868C26.4063 35.6868 27.0016 36.7744 28.773 36.7334C30.596 36.7037 31.7446 35.0965 32.8401 33.4513C33.6558 32.2901 34.2835 31.0068 34.6999 29.6487C32.5575 28.7391 31.1268 26.5746 31.1243 24.2394Z" fill="white"/>
    <path d="M27.7785 14.2921C28.7725 13.0942 29.2622 11.5545 29.1436 10C27.625 10.1601 26.2222 10.8887 25.2148 12.0407C24.2297 13.1662 23.717 14.6788 23.814 16.1739C25.3331 16.1896 26.8265 15.4808 27.7785 14.2921Z" fill="white"/>
</svg>