<svg xmlns="http://www.w3.org/2000/svg" width="44" height="44" viewBox="0 0 44 44" fill="none">
    <path fill-rule="evenodd" clip-rule="evenodd" d="M22 30C27.8333 30 29 29.3333 29 26C29 22.6667 27.8333 22 22 22C16.1667 22 15 22.6667 15 26C15 29.3333 16.1667 30 22 30ZM26.8554 27.325C26.9275 27.1339 27 26.7558 27 26C27 25.2442 26.9275 24.8661 26.8554 24.675C26.8155 24.5692 26.7928 24.5423 26.6952 24.4865C26.5204 24.3866 26.132 24.2425 25.31 24.1412C24.5049 24.042 23.4366 24 22 24C20.5634 24 19.4951 24.042 18.69 24.1412C17.868 24.2425 17.4796 24.3866 17.3048 24.4865C17.2072 24.5423 17.1845 24.5692 17.1446 24.675C17.0725 24.8661 17 25.2442 17 26C17 26.7558 17.0725 27.1339 17.1446 27.325C17.1845 27.4308 17.2072 27.4577 17.3048 27.5135C17.4796 27.6134 17.868 27.7575 18.69 27.8588C19.4951 27.958 20.5634 28 22 28C23.4366 28 24.5049 27.958 25.31 27.8588C26.132 27.7575 26.5204 27.6134 26.6952 27.5135C26.7928 27.4577 26.8155 27.4308 26.8554 27.325Z" fill="#FF7A30"/>
    <path fill-rule="evenodd" clip-rule="evenodd" d="M25 17C25 18.6569 23.6569 20 22 20C20.3431 20 19 18.6569 19 17C19 15.3431 20.3431 14 22 14C23.6569 14 25 15.3431 25 17ZM23 17C23 17.5523 22.5523 18 22 18C21.4477 18 21 17.5523 21 17C21 16.4477 21.4477 16 22 16C22.5523 16 23 16.4477 23 17Z" fill="#FF7A30"/>
    <path fill-rule="evenodd" clip-rule="evenodd" d="M22 34C32 34 34 32 34 22C34 12 32 10 22 10C12 10 10 12 10 22C10 32 12 34 22 34ZM31.5762 27.6721C31.8743 26.29 32 24.4604 32 22C32 19.5396 31.8743 17.71 31.5762 16.3279C31.283 14.9683 30.8518 14.1802 30.3358 13.6642C29.8198 13.1482 29.0317 12.717 27.6721 12.4238C26.29 12.1257 24.4604 12 22 12C19.5396 12 17.71 12.1257 16.3279 12.4238C14.9683 12.717 14.1802 13.1482 13.6642 13.6642C13.1482 14.1802 12.717 14.9683 12.4238 16.3279C12.1257 17.71 12 19.5396 12 22C12 24.4604 12.1257 26.29 12.4238 27.6721C12.717 29.0317 13.1482 29.8198 13.6642 30.3358C14.1802 30.8518 14.9683 31.283 16.3279 31.5762C17.71 31.8743 19.5396 32 22 32C24.4604 32 26.29 31.8743 27.6721 31.5762C29.0317 31.283 29.8198 30.8518 30.3358 30.3358C30.8518 29.8198 31.283 29.0317 31.5762 27.6721Z" fill="#FF7A30"/>
</svg>