<svg width="24" height="28" viewBox="0 0 24 28" fill="none" xmlns="http://www.w3.org/2000/svg">
    <path fill-rule="evenodd" clip-rule="evenodd"
          d="M17.5794 16.5955H17.586V15.3699H17.5794V15.1363C17.5794 14.6113 17.1535 14.1842 16.6348 14.1842H10.9516C10.4352 14.1842 10.0136 13.7593 10.0136 13.2388V11.3213C10.0136 10.8008 10.4352 10.3759 10.9516 10.3759H16.6569C17.1667 10.3759 17.5838 9.95545 17.5838 9.44159V9.4238H17.5882V7.50629C17.5882 7.48404 17.5838 7.46402 17.5772 7.44845C17.5287 7.01023 17.1755 6.66098 16.7363 6.62317H16.7319C16.7076 6.62317 16.6834 6.62094 16.6591 6.62094H7.22172C6.71189 6.62094 6.29696 7.04137 6.29696 7.55523V7.71539H6.29255V20.9177C6.29255 21.4383 5.871 21.8631 5.35455 21.8631H3.45428C2.93782 21.8631 2.51628 21.4383 2.51628 20.9177V3.75803C2.51628 3.2375 2.93782 2.81262 3.45428 2.81262H5.35455C5.37441 2.81262 5.39427 2.81262 5.41414 2.81262H20.528C21.0445 2.81262 21.466 3.2375 21.466 3.75803V5.67553C21.466 10.08 21.4815 14.5334 21.4815 18.9557V20.8732C21.4815 21.3938 21.0599 21.8186 20.5435 21.8186H16.9239C16.0146 21.8476 15.0413 21.6985 14.4013 22.2279C13.4986 22.9732 11.9801 24.6215 10.9119 25.5469C10.4462 25.9517 10.0269 25.796 10.0269 24.6081C10.0269 23.4203 10.0644 22.0478 10.0644 20.871V18.9535C10.0644 18.4841 10.4087 18.0904 10.8567 18.0192H16.6392C17.1601 18.0192 17.5838 17.5899 17.5838 17.0671V16.5955H17.5794Z"
          fill="#E67059"/>
    <path fill-rule="evenodd" clip-rule="evenodd"
          d="M2.9025 1.62917C3.68821 1.47791 17.8994 1.58913 19.9983 1.58691C21.1129 1.58691 21.5367 1.55354 22.2319 2.20087C22.8675 2.7948 22.9006 3.25305 22.8984 4.31191C22.8918 8.04682 22.8984 11.784 22.8984 15.5189C22.8984 17.2317 23.033 19.523 22.8896 21.1646C22.819 21.9699 22.3003 22.5683 21.7309 22.8619C21.0224 23.2245 20.0469 23.1022 19.1972 23.1022C14.4829 23.1022 15.454 23.0755 11.5475 26.8326C10.5632 27.778 11.3975 28.0294 11.6733 27.996C11.9625 27.9604 13.1631 26.6613 13.5471 26.2854C14.772 25.0864 15.454 24.1232 17.0365 24.1187C18.5571 24.1143 21.2012 24.379 22.3466 23.6983C23.7923 22.8397 23.9556 21.7897 23.9556 19.672C23.9556 15.9615 23.9556 12.2533 23.9556 8.54511C23.9556 7.2816 24.1057 3.97156 23.8541 2.96164C23.5142 1.60693 22.3268 0.574765 20.6406 0.570316H3.44102C1.70407 0.568092 0.516679 1.5224 0.145894 2.88601C-0.101296 3.79805 0.0399551 7.18817 0.0421621 8.38717L0.0222987 19.5941C0.0222987 20.6018 -0.0417059 21.2024 0.384255 22.0388C1.26708 23.7717 2.87602 23.7272 4.32164 23.7272C4.67035 23.7272 5.44944 23.7695 5.7474 23.7206C6.14908 23.6561 6.37199 23.1533 6.04093 22.8486C5.37882 22.2346 2.69725 23.5159 1.44143 21.7875C0.781525 20.8777 1.06182 17.8791 1.06182 16.5355L1.08168 5.40858C1.08168 3.99603 0.737384 2.04738 2.9003 1.62917"
          fill="#E67059"/>
    <path d="M5 4.86031H15V21.8603H5V4.86031Z" fill="#E67059"/>
    <path d="M10 4H20V21H10V4Z" fill="#E67059"/>
    <path d="M7.71855 20C6.96279 20 6.38679 19.9093 5.99057 19.728C5.60168 19.5467 5.33753 19.2503 5.19811 18.8389C5.06604 18.4275 5 17.8801 5 17.1967V7.80335C5 7.106 5.06604 6.55509 5.19811 6.15063C5.33753 5.73919 5.60168 5.4463 5.99057 5.27197C6.38679 5.09066 6.96279 5 7.71855 5H11.0975C12.6751 5 14.0545 5.22315 15.2358 5.66946C16.4245 6.11576 17.3491 6.87238 18.0094 7.93933C18.6698 8.9993 19 10.4568 19 12.3117C19 14.1667 18.6698 15.659 18.0094 16.7887C17.3491 17.9114 16.4245 18.7273 15.2358 19.2364C14.0545 19.7455 12.6751 20 11.0975 20H7.71855ZM9.80975 7.75105C9.32547 7.75105 8.99528 7.84867 8.81918 8.04393C8.64308 8.23919 8.55503 8.57392 8.55503 9.04812V15.9519C8.55503 16.4191 8.64308 16.7538 8.81918 16.9561C8.99528 17.1583 9.32547 17.2594 9.80975 17.2594H10.316C11.8863 17.2594 13.1006 16.8933 13.9591 16.1611C14.8249 15.4289 15.2579 14.1597 15.2579 12.3536C15.2579 11.1471 15.0597 10.2127 14.6635 9.55021C14.2746 8.88075 13.7096 8.41353 12.9686 8.14854C12.2275 7.88354 11.336 7.75105 10.294 7.75105H9.80975Z"
          fill="#222222"/>
</svg>
