<svg xmlns="http://www.w3.org/2000/svg" width="24" height="21" viewBox="0 0 24 21" fill="none">
    <path d="M0 20.0442V14.615C0 12.9384 0.28115 11.2085 0.84345 9.42543C1.43131 7.61571 2.23642 5.89915 3.25879 4.27573C4.30671 2.62569 5.49521 1.21518 6.82428 0.0441895L11.4249 3.0382C10.4026 4.71485 9.55911 6.48464 8.89457 8.34758C8.25559 10.1839 7.9361 12.2598 7.9361 14.5751V20.0442H0ZM12.5751 20.0442V14.615C12.5751 12.9384 12.8562 11.2085 13.4185 9.42543C14.0064 7.61571 14.8115 5.89915 15.8339 4.27573C16.8818 2.62569 18.0703 1.21518 19.3994 0.0441895L24 3.0382C22.9776 4.71485 22.1342 6.48464 21.4696 8.34758C20.8307 10.1839 20.5112 12.2598 20.5112 14.5751V20.0442H12.5751Z" fill="#F2705B"/>
</svg>