<svg xmlns="http://www.w3.org/2000/svg" width="18" height="18" viewBox="0 0 18 18" fill="none">
    <path d="M7.87508 9.00009H3.75008M3.68658 9.21871L1.93539 14.4497C1.79782 14.8607 1.72903 15.0662 1.7784 15.1927C1.82127 15.3026 1.91334 15.3859 2.02695 15.4176C2.15778 15.4541 2.35538 15.3652 2.75058 15.1874L15.2842 9.54724C15.6699 9.37366 15.8628 9.28686 15.9224 9.16629C15.9742 9.06154 15.9742 8.93863 15.9224 8.83388C15.8628 8.71331 15.6699 8.62652 15.2842 8.45294L2.74621 2.81088C2.3522 2.63358 2.15519 2.54493 2.0245 2.58129C1.91099 2.61287 1.81893 2.69596 1.77591 2.80565C1.72638 2.93194 1.79443 3.13697 1.93054 3.54704L3.68707 8.83923C3.71045 8.90966 3.72214 8.94488 3.72675 8.98089C3.73084 9.01285 3.7308 9.04521 3.72663 9.07715C3.72192 9.11316 3.71014 9.14834 3.68658 9.21871Z" stroke="#E0E3E7" stroke-width="2" stroke-linecap="round" stroke-linejoin="round"/>
</svg>