<svg width="24" height="27" viewBox="0 0 120 120" fill="none" xmlns="http://www.w3.org/2000/svg">
    <path fill-rule="evenodd" clip-rule="evenodd" d="M87.8997 70.1229H87.9329V64.7606H87.8997V63.7388C87.8997 61.442 85.7699 59.5737 83.1766 59.5737H54.7636C52.1816 59.5737 50.0741 57.7145 50.0741 55.4374V47.048C50.0741 44.7709 52.1816 42.912 54.7636 42.912H83.2873C85.8358 42.912 87.9214 41.0726 87.9214 38.8245V38.7467H87.9438V30.3576C87.9438 30.2602 87.9214 30.1727 87.8888 30.1045C87.6458 28.1873 85.8806 26.6593 83.6843 26.4939H83.6626C83.5411 26.4939 83.4196 26.4842 83.2981 26.4842H36.1157C33.5668 26.4842 31.4923 28.3235 31.4923 30.5717V31.2723H31.4592V89.0327C31.4592 91.3097 29.3517 93.169 26.7697 93.169H17.2692C14.6872 93.169 12.5796 91.3097 12.5796 89.0327V13.9686C12.5796 11.6913 14.6872 9.83245 17.2692 9.83245H26.7697C26.869 9.83245 26.9683 9.83245 27.0676 9.83245H102.63C105.212 9.83245 107.32 11.6913 107.32 13.9686V22.3577C107.32 41.6273 107.397 61.111 107.397 80.4589V88.8477C107.397 91.1248 105.29 92.984 102.707 92.984H84.6114C80.0649 93.1103 75.1993 92.4585 71.9993 94.7744C67.486 98.035 59.8945 105.246 54.554 109.295C52.2257 111.066 50.1293 110.385 50.1293 105.188C50.1293 99.9912 50.3168 93.9861 50.3168 88.8381V80.4487C50.3168 78.3955 52.0381 76.6728 54.2781 76.3615H83.1882C85.7916 76.3615 87.9105 74.4831 87.9105 72.1958V70.1331L87.8997 70.1229Z" fill="#E67059"/>
    <path fill-rule="evenodd" clip-rule="evenodd" d="M14.5222 4.63247C18.4504 3.97071 89.5 4.45731 99.9939 4.44756C105.566 4.44756 107.684 4.30162 111.16 7.13366C114.338 9.73212 114.504 11.737 114.493 16.3695C114.46 32.7097 114.493 49.0599 114.493 65.3999C114.493 72.8938 115.166 82.918 114.449 90.1C114.095 93.6233 111.502 96.241 108.655 97.5256C105.113 99.1119 100.236 98.5768 95.9883 98.5768C72.4187 98.5768 77.2741 98.46 57.7434 114.898C52.8222 119.034 56.9931 120.134 58.3723 119.987C59.8179 119.832 65.8205 114.148 67.7405 112.504C73.8643 107.258 77.2741 103.044 85.1856 103.024C92.7883 103.005 106.007 104.163 111.734 101.185C118.961 97.4286 119.778 92.835 119.778 83.5698C119.778 67.3364 119.778 51.1131 119.778 34.8897C119.778 29.3716 120.528 14.8804 119.271 10.4621C117.582 4.53519 111.635 0.0194716 103.205 1.7066e-05H17.2035C8.51956 -0.00974012 2.58316 4.16532 0.729403 10.1312C-0.506438 14.1213 0.199759 28.9531 0.210795 34.1987L0.111482 83.2292C0.111482 87.6379 -0.208513 90.2658 1.9211 93.925C6.33479 101.506 14.3788 101.312 21.6062 101.312C23.3496 101.312 27.2448 101.497 28.7344 101.282C30.7426 101 31.8571 98.8006 30.2019 97.4676C26.8916 94.7816 13.485 100.387 7.2065 92.8254C3.90727 88.8447 5.30861 75.7258 5.30861 69.8571L5.4079 21.1771C5.4079 14.9972 3.68659 6.47184 14.5002 4.64222" fill="#E67059"/>
</svg>
