<svg xmlns="http://www.w3.org/2000/svg" width="44" height="42" viewBox="0 0 44 42" fill="none">
    <path d="M14.4374 21.9019C13.61 20.4689 13.0158 19.3347 12.6351 18.4063C12.2517 17.4715 12.1177 16.8216 12.1353 16.3389C12.1649 15.5289 12.6392 14.8572 14.4159 13.8314C15.4103 13.2573 16.11 12.9783 16.6618 12.9136C17.1486 12.8565 17.5739 12.9591 18.074 13.3314C18.517 13.6612 19.1435 13.5695 19.4733 13.1265C19.8031 12.6835 19.7113 12.057 19.2683 11.7272C18.3934 11.0758 17.4642 10.8057 16.4287 10.9272C15.4582 11.0411 14.4677 11.4921 13.4159 12.0993C11.5721 13.1638 10.2075 14.3236 10.1366 16.2659C10.104 17.1593 10.3543 18.1159 10.7846 19.1651C11.2175 20.2207 11.866 21.4482 12.7053 22.9019C13.5447 24.3556 14.2834 25.531 14.9811 26.4337C15.6747 27.3309 16.3779 28.026 17.1679 28.4444C18.8855 29.3542 20.5721 28.7523 22.4159 27.6878C24.0488 26.745 25.328 25.7203 25.631 24.1045C25.9165 22.582 25.2603 20.8372 24.1162 18.6675C23.8585 18.179 23.2537 17.9918 22.7652 18.2494C22.2766 18.507 22.0895 19.1119 22.3471 19.6004C23.5099 21.8055 23.8082 22.9737 23.6653 23.7359C23.5398 24.4049 23.0077 25.0367 21.4159 25.9558C19.6392 26.9815 18.8203 27.0564 18.104 26.677C17.6772 26.4509 17.1814 26.0099 16.5635 25.2106C15.9499 24.4167 15.2647 23.3349 14.4374 21.9019Z" fill="#1D9590"/>
    <path d="M21.6522 22.3995C20.4894 20.1944 20.1911 19.0262 20.334 18.264C20.4594 17.595 20.9916 16.9632 22.5834 16.0442C24.3601 15.0184 25.179 14.9435 25.8952 15.3229C26.3221 15.549 26.8179 15.99 27.4358 16.7894C28.0494 17.5833 28.7345 18.665 29.5619 20.098C30.3892 21.5311 30.9835 22.6653 31.3642 23.5937C31.7476 24.5284 31.8816 25.1783 31.864 25.661C31.8344 26.471 31.3601 27.1428 29.5834 28.1685C28.589 28.7426 27.8893 29.0216 27.3375 29.0863C26.8507 29.1434 26.4254 29.0408 25.9253 28.6685C25.4823 28.3387 24.8558 28.4304 24.526 28.8734C24.1962 29.3164 24.2879 29.9429 24.7309 30.2727C25.6058 30.9241 26.5351 31.1942 27.5706 31.0727C28.5411 30.9588 29.5315 30.5079 30.5834 29.9006C32.4271 28.8361 33.7917 27.6763 33.8626 25.734C33.8953 24.8406 33.6449 23.8841 33.2147 22.8348C32.7818 21.7792 32.1332 20.5518 31.2939 19.098C30.4546 17.6443 29.7159 16.4689 29.0181 15.5662C28.3246 14.669 27.6214 13.974 26.8314 13.5555C25.1138 12.6457 23.4271 13.2476 21.5834 14.3121C19.9504 15.2549 18.6712 16.2796 18.3683 17.8954C18.0827 19.418 18.739 21.1628 19.8831 23.3324C20.1407 23.821 20.7456 24.0081 21.2341 23.7505C21.7226 23.4929 21.9098 22.8881 21.6522 22.3995Z" fill="#1D9590"/>
</svg>