<svg xmlns="http://www.w3.org/2000/svg" width="44" height="44" viewBox="0 0 44 44" fill="none">
    <path d="M16.1644 17.983C15.6196 18.0738 15.1044 17.7058 15.0136 17.161C14.9228 16.6162 15.2908 16.101 15.8356 16.0102C19.9171 15.3299 24.0829 15.3299 28.1644 16.0102C28.7092 16.101 29.0772 16.6162 28.9864 17.161C28.8956 17.7058 28.3804 18.0738 27.8356 17.983C23.9718 17.339 20.0282 17.339 16.1644 17.983Z" fill="#FCB52E"/>
    <path d="M15.0136 21.161C15.1044 21.7058 15.6196 22.0738 16.1644 21.983C20.0282 21.339 23.9718 21.339 27.8356 21.983C28.3804 22.0738 28.8956 21.7058 28.9864 21.161C29.0772 20.6162 28.7092 20.101 28.1644 20.0102C24.0829 19.3299 19.9171 19.3299 15.8356 20.0102C15.2908 20.101 14.9228 20.6162 15.0136 21.161Z" fill="#FCB52E"/>
    <path fill-rule="evenodd" clip-rule="evenodd" d="M23.0161 33.9884C22.6865 33.994 22.3478 33.9966 22 33.9966C19.6885 33.9966 17.77 33.8823 16.2032 33.5444C14.6252 33.2041 13.337 32.6228 12.3554 31.6412C11.3738 30.6596 10.7925 29.3714 10.4522 27.7934C10.1142 26.2266 10 24.3081 10 21.9966C10 19.6851 10.1142 17.7666 10.4522 16.1998C10.7925 14.6218 11.3738 13.3336 12.3554 12.352C13.337 11.3704 14.6252 10.7891 16.2032 10.4487C17.77 10.1108 19.6885 9.99658 22 9.99658C24.3115 9.99658 26.23 10.1108 27.7968 10.4487C29.3748 10.7891 30.663 11.3704 31.6446 12.352C32.6262 13.3336 33.2075 14.6218 33.5478 16.1998C33.8858 17.7666 34 19.6851 34 21.9966C34 22.6942 33.9899 23.3588 33.9659 23.9908L33.9846 23.9901L33.9207 24.8898C33.8718 25.6577 33.7973 26.3731 33.6896 27.0374C33.437 28.5992 32.9966 29.8991 32.2467 30.9344C31.5636 31.8786 30.671 32.5411 29.5694 33.0019C28.1515 33.5959 26.3882 33.8544 24.2745 33.9503C24.2214 33.9527 24.1681 33.955 24.1145 33.9573L23.015 34.0031L23.0161 33.9884ZM12 21.9966C12 19.7247 12.1149 17.9766 12.4072 16.6215C12.6971 15.2776 13.147 14.3888 13.7696 13.7662C14.3922 13.1436 15.281 12.6936 16.6249 12.4038C17.98 12.1115 19.7281 11.9966 22 11.9966C24.2719 11.9966 26.02 12.1115 27.3751 12.4038C28.719 12.6936 29.6078 13.1436 30.2304 13.7662C30.853 14.3888 31.3029 15.2776 31.5928 16.6215C31.8851 17.9766 32 19.7247 32 21.9966C32 22.7519 31.987 23.4466 31.9595 24.0861C29.1922 24.2753 27.0766 24.8072 25.5998 26.1212C24.1088 27.448 23.4484 29.4058 23.1736 31.9851C22.7984 31.9929 22.4074 31.9966 22 31.9966C19.7281 31.9966 17.98 31.8817 16.6249 31.5894C15.281 31.2995 14.3922 30.8496 13.7696 30.227C13.147 29.6044 12.6971 28.7155 12.4072 27.3717C12.1149 26.0166 12 24.2684 12 21.9966ZM30.4535 29.983C30.0786 30.4289 29.5998 30.7926 28.9694 31.0819C28.0697 31.4942 26.8584 31.7566 25.1977 31.8896C25.468 29.6914 26.028 28.4174 26.9294 27.6153C27.8651 26.7827 29.3394 26.3008 31.8019 26.1035L31.7922 26.1812C31.5599 28.0049 31.1238 29.1835 30.4535 29.983Z" fill="#FCB52E"/>
</svg>