<svg xmlns="http://www.w3.org/2000/svg" width="18" height="18" viewBox="0 0 18 18" fill="none">
    <path fill-rule="evenodd" clip-rule="evenodd" d="M14.1432 5.614C14.3563 5.96918 14.2411 6.42988 13.886 6.64299C11.512 8.06736 9.48397 10.0011 7.9483 12.3046L7.37412 13.1659C7.23151 13.3798 6.98926 13.5058 6.73224 13.4997C6.47521 13.4935 6.23923 13.3562 6.10696 13.1357L5.6776 12.4201C5.27669 11.752 4.73241 11.1811 4.08405 10.7489C3.73941 10.5191 3.64628 10.0535 3.87604 9.70884C4.10581 9.3642 4.57146 9.27107 4.9161 9.50083C5.65315 9.99219 6.28553 10.6229 6.77829 11.3564C8.42757 8.9192 10.5898 6.87137 13.1142 5.35675C13.4694 5.14364 13.9301 5.25881 14.1432 5.614Z" fill="#00B57C"/>
</svg>