<svg xmlns="http://www.w3.org/2000/svg" width="46" height="46" viewBox="0 0 46 46" fill="none">
    <path fill-rule="evenodd" clip-rule="evenodd" d="M13.3408 17.4848C13.0485 18.8399 12.9336 20.588 12.9336 22.8599C12.9336 25.1317 13.0485 26.8799 13.3408 28.235C13.6307 29.5788 14.0806 30.4677 14.7032 31.0903C15.3258 31.7128 16.2146 32.1628 17.5585 32.4527C18.9136 32.7449 20.6617 32.8599 22.9336 32.8599C24.3703 32.8599 25.603 32.8141 26.6632 32.7046L26.7756 32.693L26.8877 32.7068C28.4856 32.9029 30.1171 33.068 31.4025 33.1216C32.0285 33.1478 32.544 33.1461 32.9222 33.1149C32.9204 33.1111 32.9185 33.1073 32.9166 33.1035C32.6991 32.6627 32.3054 32.0909 31.82 31.4736L31.3917 30.929L31.7512 30.3367C32.6039 28.9316 32.9336 26.6629 32.9336 22.8599C32.9336 20.588 32.8187 18.8399 32.5264 17.4848C32.2365 16.1409 31.7866 15.252 31.164 14.6295C30.5414 14.0069 29.6526 13.5569 28.3087 13.2671C26.9536 12.9748 25.2055 12.8599 22.9336 12.8599C20.6617 12.8599 18.9136 12.9748 17.5585 13.2671C16.2146 13.5569 15.3258 14.0069 14.7032 14.6295C14.0806 15.252 13.6307 16.1409 13.3408 17.4848ZM33.387 33.039C33.3874 33.0391 33.3838 33.0408 33.3755 33.0436C33.3826 33.0403 33.3867 33.0389 33.387 33.039ZM17.1368 11.312C18.7036 10.9741 20.6221 10.8599 22.9336 10.8599C25.2451 10.8599 27.1636 10.9741 28.7304 11.312C30.3084 11.6524 31.5966 12.2337 32.5782 13.2153C33.5598 14.1968 34.1411 15.4851 34.4814 17.0631C34.8194 18.6299 34.9336 20.5484 34.9336 22.8599C34.9336 26.2524 34.6939 28.8605 33.7908 30.7609C34.1515 31.2517 34.4812 31.7544 34.7102 32.2186C34.8635 32.5294 35.005 32.8879 35.0504 33.2525C35.0963 33.6211 35.0569 34.1508 34.6407 34.567C34.3891 34.8186 34.0729 34.9272 33.8727 34.9819C33.644 35.0443 33.3904 35.081 33.1371 35.1037C32.6278 35.1494 31.9989 35.1483 31.3191 35.1199C29.9839 35.0642 28.3356 34.8978 26.7552 34.7055C25.6287 34.8162 24.3585 34.8599 22.9336 34.8599C20.6221 34.8599 18.7036 34.7456 17.1368 34.4077C15.5588 34.0673 14.2706 33.4861 13.289 32.5045C12.3074 31.5229 11.7261 30.2347 11.3858 28.6566C11.0478 27.0899 10.9336 25.1713 10.9336 22.8599C10.9336 20.5484 11.0478 18.6299 11.3858 17.0631C11.7261 15.4851 12.3074 14.1968 13.289 13.2153C14.2706 12.2337 15.5588 11.6524 17.1368 11.312Z" fill="#26763B"/>
</svg>