<svg xmlns="http://www.w3.org/2000/svg" width="44" height="40" viewBox="0 0 44 40" fill="none">
    <path d="M20 24C20 24.5523 19.5523 25 19 25H15C14.4477 25 14 24.5523 14 24C14 23.4477 14.4477 23 15 23H19C19.5523 23 20 23.4477 20 24Z" fill="#287EFE"/>
    <path d="M25 25C25.5523 25 26 24.5523 26 24C26 23.4477 25.5523 23 25 23H23C22.4477 23 22 23.4477 22 24C22 24.5523 22.4477 25 23 25H25Z" fill="#287EFE"/>
    <path fill-rule="evenodd" clip-rule="evenodd" d="M34 20C34 28.3333 32 30 22 30C12 30 10 28.3333 10 20C10 11.6667 12 10 22 10C32 10 34 11.6667 34 20ZM32 20C32 24.2211 31.4303 25.788 30.4696 26.5886C29.9618 27.0117 29.1509 27.3873 27.7399 27.6409C26.3249 27.8953 24.4676 28 22 28C19.5324 28 17.6751 27.8953 16.2601 27.6409C14.8491 27.3873 14.0382 27.0117 13.5304 26.5886C12.5697 25.788 12 24.2211 12 20C12 19.2339 12.0188 18.5552 12.0552 17.9526C18.6714 17.3506 25.3286 17.3506 31.9448 17.9526C31.9812 18.5552 32 19.2339 32 20ZM31.7074 15.9236C31.4477 14.5898 31.0237 13.8731 30.4696 13.4114C29.9618 12.9883 29.1509 12.6127 27.7399 12.3591C26.3249 12.1047 24.4676 12 22 12C19.5324 12 17.6751 12.1047 16.2601 12.3591C14.8491 12.6127 14.0382 12.9883 13.5304 13.4114C12.9763 13.8731 12.5523 14.5898 12.2926 15.9236C18.752 15.3603 25.2481 15.3603 31.7074 15.9236Z" fill="#287EFE"/>
</svg>