<svg width="18" height="18" viewBox="0 0 18 18" fill="none" xmlns="http://www.w3.org/2000/svg">
    <path d="M11.3449 4.51416L14.8711 8.20557C15.082 8.40947 15.1875 8.68721 15.1875 8.99307C15.1875 9.29893 15.082 9.57315 14.8711 9.78057L11.3449 13.486C10.9266 13.9255 10.2445 13.9255 9.82617 13.486C9.40781 13.0466 9.40781 12.3364 9.82617 11.897L11.5172 10.1251H3.88828C3.29414 10.1251 2.8125 9.62236 2.8125 9.0001C2.8125 8.37783 3.29414 7.8751 3.88828 7.8751L11.5172 7.8751L9.82266 6.10322C9.4043 5.66377 9.4043 4.95361 9.82266 4.51416C10.2445 4.07471 10.923 4.07471 11.3449 4.51416Z" fill="#E0E3E7"/>
</svg>