<svg xmlns="http://www.w3.org/2000/svg" width="44" height="44" viewBox="0 0 44 44" fill="none">
    <path d="M23 16C23 15.4477 22.5523 15 22 15C21.4477 15 21 15.4477 21 16V23C21 23.5523 21.4477 24 22 24H26C26.5523 24 27 23.5523 27 23C27 22.4477 26.5523 22 26 22H23V16Z" fill="#15B0E6"/>
    <path fill-rule="evenodd" clip-rule="evenodd" d="M34 22C34 32 32 34 22 34C12 34 10 32 10 22C10 12 12 10 22 10C32 10 34 12 34 22ZM32 22C32 24.4604 31.8743 26.29 31.5762 27.6721C31.283 29.0317 30.8518 29.8198 30.3358 30.3358C29.8198 30.8518 29.0317 31.283 27.6721 31.5762C26.29 31.8743 24.4604 32 22 32C19.5396 32 17.71 31.8743 16.3279 31.5762C14.9683 31.283 14.1802 30.8518 13.6642 30.3358C13.1482 29.8198 12.717 29.0317 12.4238 27.6721C12.1257 26.29 12 24.4604 12 22C12 19.5396 12.1257 17.71 12.4238 16.3279C12.717 14.9683 13.1482 14.1802 13.6642 13.6642C14.1802 13.1482 14.9683 12.717 16.3279 12.4238C17.71 12.1257 19.5396 12 22 12C24.4604 12 26.29 12.1257 27.6721 12.4238C29.0317 12.717 29.8198 13.1482 30.3358 13.6642C30.8518 14.1802 31.283 14.9683 31.5762 16.3279C31.8743 17.71 32 19.5396 32 22Z" fill="#15B0E6"/>
</svg>