<svg width="120" height="41" viewBox="0 0 120 41" fill="none" xmlns="http://www.w3.org/2000/svg">
    <rect x="0.5" y="1.3064" width="119" height="39" rx="5.5" fill="black"/>
    <rect x="0.5" y="1.3064" width="119" height="39" rx="5.5" stroke="#A6A6A6"/>
    <path d="M24.7045 21.5696C24.7166 20.6497 24.9669 19.7478 25.4321 18.9477C25.8972 18.1476 26.5621 17.4753 27.3648 16.9935C26.8548 16.2825 26.1821 15.6973 25.4 15.2845C24.6178 14.8717 23.7479 14.6426 22.8592 14.6155C20.9635 14.4212 19.1258 15.7229 18.1598 15.7229C17.1751 15.7229 15.6878 14.6348 14.0862 14.6669C13.0502 14.6996 12.0406 14.9937 11.1557 15.5206C10.2708 16.0475 9.54075 16.7892 9.03674 17.6734C6.85352 21.3638 8.48201 26.7874 10.5734 29.7705C11.6197 31.2312 12.8426 32.8629 14.4428 32.805C16.0086 32.7416 16.5934 31.8302 18.4835 31.8302C20.3561 31.8302 20.9048 32.805 22.5374 32.7682C24.2176 32.7416 25.2762 31.301 26.2859 29.8265C27.0377 28.7857 27.6162 27.6353 28 26.4181C27.0238 26.015 26.1908 25.3403 25.6048 24.4781C25.0187 23.6159 24.7056 22.6044 24.7045 21.5696Z" fill="white"/>
    <path d="M21.621 12.6535C22.5372 11.5798 22.9885 10.1998 22.8792 8.8064C21.4796 8.94992 20.1867 9.60299 19.2582 10.6355C18.8043 11.1399 18.4566 11.7267 18.235 12.3624C18.0135 12.9981 17.9224 13.6702 17.9671 14.3402C18.6672 14.3472 19.3597 14.1991 19.9927 13.9069C20.6256 13.6148 21.1824 13.1862 21.621 12.6535Z" fill="white"/>
    <path d="M36.791 9.30786H38.8608C40.6494 9.30786 41.5195 10.3713 41.5195 12.3005C41.5195 14.2297 40.6406 15.3064 38.8608 15.3064H36.791V9.30786ZM37.7886 10.1472V14.467H38.751C39.9375 14.467 40.4956 13.7507 40.4956 12.3137C40.4956 10.8679 39.9331 10.1472 38.751 10.1472H37.7886ZM44.6748 10.5823C45.8877 10.5823 46.7358 11.3689 46.7358 12.6741V13.2761C46.7358 14.6252 45.8877 15.3855 44.6748 15.3855C43.4443 15.3855 42.605 14.634 42.605 13.2805V12.6785C42.605 11.4084 43.4575 10.5823 44.6748 10.5823ZM44.6792 11.3689C43.9849 11.3689 43.5894 11.949 43.5894 12.7268V13.2454C43.5894 14.0232 43.9585 14.5989 44.6792 14.5989C45.3911 14.5989 45.7559 14.0276 45.7559 13.2454V12.7268C45.7559 11.949 45.3735 11.3689 44.6792 11.3689ZM53.8989 10.6614L52.6772 15.3064H51.6841L50.7129 11.8787H50.6865L49.7329 15.3064H48.7354L47.4609 10.6614H48.5112L49.2583 14.2034H49.3022L50.2383 10.6614H51.1567L52.1191 14.2034H52.1631L52.9233 10.6614H53.8989ZM54.8657 15.3064V10.6614H55.8237V11.4963H55.8721C55.9907 11.1316 56.3291 10.5911 57.2695 10.5911C58.2056 10.5911 58.834 11.1096 58.834 12.1687V15.3064H57.8584V12.4543C57.8584 11.7468 57.4893 11.4216 56.9399 11.4216C56.2192 11.4216 55.8413 11.9753 55.8413 12.7268V15.3064H54.8657ZM60.3105 15.3064V8.99146H61.2861V15.3064H60.3105ZM64.6348 10.5823C65.8477 10.5823 66.6958 11.3689 66.6958 12.6741V13.2761C66.6958 14.6252 65.8477 15.3855 64.6348 15.3855C63.4043 15.3855 62.5649 14.634 62.5649 13.2805V12.6785C62.5649 11.4084 63.4175 10.5823 64.6348 10.5823ZM64.6392 11.3689C63.9448 11.3689 63.5493 11.949 63.5493 12.7268V13.2454C63.5493 14.0232 63.9185 14.5989 64.6392 14.5989C65.3511 14.5989 65.7158 14.0276 65.7158 13.2454V12.7268C65.7158 11.949 65.3335 11.3689 64.6392 11.3689ZM69.2227 15.3767C68.3218 15.3767 67.7021 14.823 67.7021 13.9573C67.7021 13.1355 68.2734 12.5818 69.3457 12.5818H70.519V12.1467C70.519 11.615 70.1807 11.3645 69.6445 11.3645C69.1172 11.3645 68.8799 11.5842 68.8052 11.8918H67.8779C67.9351 11.114 68.5195 10.5911 69.6753 10.5911C70.6685 10.5911 71.4902 11.0042 71.4902 12.1599V15.3064H70.563V14.7043H70.519C70.3125 15.0603 69.9082 15.3767 69.2227 15.3767ZM69.5259 14.6208C70.0796 14.6208 70.519 14.2429 70.519 13.7375V13.2366H69.4995C68.9326 13.2366 68.6821 13.5222 68.6821 13.9089C68.6821 14.3923 69.0864 14.6208 69.5259 14.6208ZM74.4961 10.5999C75.1509 10.5999 75.6519 10.8899 75.832 11.3601H75.8804V8.99146H76.856V15.3064H75.9067V14.5637H75.8584C75.7178 15.0339 75.1597 15.3679 74.4829 15.3679C73.415 15.3679 72.7207 14.6077 72.7207 13.3816V12.5862C72.7207 11.3601 73.4282 10.5999 74.4961 10.5999ZM74.7686 11.3997C74.1182 11.3997 73.7139 11.8831 73.7139 12.7268V13.2366C73.7139 14.0847 74.1226 14.5681 74.7905 14.5681C75.4497 14.5681 75.8804 14.0891 75.8804 13.2981V12.595C75.8804 11.8787 75.4102 11.3997 74.7686 11.3997ZM82.2129 10.5823C83.4258 10.5823 84.2739 11.3689 84.2739 12.6741V13.2761C84.2739 14.6252 83.4258 15.3855 82.2129 15.3855C80.9824 15.3855 80.1431 14.634 80.1431 13.2805V12.6785C80.1431 11.4084 80.9956 10.5823 82.2129 10.5823ZM82.2173 11.3689C81.5229 11.3689 81.1274 11.949 81.1274 12.7268V13.2454C81.1274 14.0232 81.4966 14.5989 82.2173 14.5989C82.9292 14.5989 83.2939 14.0276 83.2939 13.2454V12.7268C83.2939 11.949 82.9116 11.3689 82.2173 11.3689ZM85.5308 15.3064V10.6614H86.4888V11.4963H86.5371C86.6558 11.1316 86.9941 10.5911 87.9346 10.5911C88.8706 10.5911 89.499 11.1096 89.499 12.1687V15.3064H88.5234V12.4543C88.5234 11.7468 88.1543 11.4216 87.605 11.4216C86.8843 11.4216 86.5063 11.9753 86.5063 12.7268V15.3064H85.5308ZM93.2739 10.6921V9.53198H94.2275V10.6921H95.269V11.4568H94.2275V13.9221C94.2275 14.4275 94.4165 14.5681 94.9395 14.5681C95.0713 14.5681 95.2471 14.5593 95.3218 14.5505V15.2976C95.2427 15.3108 94.9175 15.3372 94.6978 15.3372C93.5684 15.3372 93.2607 14.9329 93.2607 14.0012V11.4568H92.5532V10.6921H93.2739ZM96.4995 15.3064V8.99146H97.4707V11.4963H97.519C97.6201 11.1667 97.998 10.5911 98.9297 10.5911C99.835 10.5911 100.481 11.114 100.481 12.1731V15.3064H99.5098V12.4587C99.5098 11.7512 99.1187 11.4216 98.5649 11.4216C97.8662 11.4216 97.4707 11.9709 97.4707 12.7268V15.3064H96.4995ZM103.755 15.3855C102.489 15.3855 101.703 14.6077 101.703 13.2981V12.6697C101.703 11.3513 102.564 10.5823 103.698 10.5823C104.862 10.5823 105.684 11.3909 105.684 12.6697V13.2146H102.669V13.4431C102.669 14.1111 103.065 14.6033 103.75 14.6033C104.26 14.6033 104.612 14.3616 104.678 14.0715H105.631C105.574 14.6077 105.007 15.3855 103.755 15.3855ZM102.669 12.5774H104.73V12.5159C104.73 11.8171 104.322 11.3513 103.702 11.3513C103.083 11.3513 102.669 11.8171 102.669 12.5159V12.5774Z" fill="white"/>
    <path d="M38.2061 31.3064H36.1758L40.3066 19.3093H42.5391L46.6611 31.3064H44.5518L43.4883 27.9841H39.2783L38.2061 31.3064ZM41.4316 21.3835H41.3525L39.7266 26.4548H43.04L41.4316 21.3835ZM52.2644 31.4382C51.0603 31.4382 50.1462 30.8669 49.654 30.0144H49.5837V34.3914H47.6325V22.0164H49.531V23.3787H49.6013C50.1111 22.491 51.0603 21.8933 52.3083 21.8933C54.3913 21.8933 55.8767 23.4666 55.8767 26.2439V27.0701C55.8767 29.8298 54.4089 31.4382 52.2644 31.4382ZM51.8161 29.8298C53.0554 29.8298 53.8991 28.8367 53.8991 26.9646V26.3142C53.8991 24.5125 53.1081 23.4841 51.781 23.4841C50.4187 23.4841 49.5661 24.5916 49.5661 26.3054V26.9646C49.5661 28.7224 50.4275 29.8298 51.8161 29.8298ZM62.183 31.4382C60.9789 31.4382 60.0649 30.8669 59.5727 30.0144H59.5024V34.3914H57.5512V22.0164H59.4496V23.3787H59.52C60.0297 22.491 60.9789 21.8933 62.227 21.8933C64.31 21.8933 65.7954 23.4666 65.7954 26.2439V27.0701C65.7954 29.8298 64.3276 31.4382 62.183 31.4382ZM61.7348 29.8298C62.9741 29.8298 63.8178 28.8367 63.8178 26.9646V26.3142C63.8178 24.5125 63.0268 23.4841 61.6996 23.4841C60.3373 23.4841 59.4848 24.5916 59.4848 26.3054V26.9646C59.4848 28.7224 60.3461 29.8298 61.7348 29.8298ZM69.8387 27.9753H71.7899C71.8778 29.0125 72.7919 29.9001 74.4882 29.9001C76.0438 29.9001 76.9667 29.1707 76.9667 28.0369C76.9667 27.1228 76.3514 26.6306 75.0682 26.323L73.0995 25.8308C71.5526 25.4705 70.1639 24.5476 70.1639 22.5964C70.1639 20.3025 72.1679 19.0457 74.497 19.0457C76.8261 19.0457 78.7684 20.3025 78.8124 22.5437H76.8964C76.8085 21.5242 76.0262 20.6804 74.4706 20.6804C73.0995 20.6804 72.1679 21.3308 72.1679 22.447C72.1679 23.2292 72.7128 23.7917 73.829 24.0466L75.7889 24.53C77.5907 24.9695 78.9618 25.822 78.9618 27.8611C78.9618 30.2166 77.0546 31.5437 74.3387 31.5437C70.9989 31.5437 69.8827 29.5925 69.8387 27.9753ZM81.3395 22.0164V19.7576H83.2555V22.0164H85.066V23.5808H83.2555V28.5378C83.2555 29.5486 83.6334 29.8298 84.6793 29.8298C84.8463 29.8298 85.0045 29.8298 85.1188 29.8123V31.3064C84.9605 31.3328 84.5914 31.3679 84.1959 31.3679C81.9371 31.3679 81.3131 30.5593 81.3131 28.696V23.5808H80.0299V22.0164H81.3395ZM90.3353 21.8582C93.0071 21.8582 94.4573 23.739 94.4573 26.2703V27.0173C94.4573 29.6365 93.0159 31.4646 90.3353 31.4646C87.6546 31.4646 86.1956 29.6365 86.1956 27.0173V26.2703C86.1956 23.7478 87.6634 21.8582 90.3353 21.8582ZM90.3353 23.4226C88.8851 23.4226 88.1644 24.6091 88.1644 26.2966V27.0085C88.1644 28.6697 88.8763 29.8914 90.3353 29.8914C91.7943 29.8914 92.4974 28.6785 92.4974 27.0085V26.2966C92.4974 24.6003 91.7855 23.4226 90.3353 23.4226ZM96.1055 31.3064V22.0164H98.0567V23.238H98.127C98.3643 22.658 99.0586 21.8845 100.351 21.8845C100.606 21.8845 100.825 21.9021 101.01 21.9373V23.6599C100.843 23.616 100.5 23.5896 100.175 23.5896C98.6104 23.5896 98.083 24.5564 98.083 25.8044V31.3064H96.1055ZM105.743 31.4646C103.256 31.4646 101.674 29.821 101.674 27.0701V26.1296C101.674 23.5369 103.22 21.8582 105.664 21.8582C108.142 21.8582 109.636 23.5984 109.636 26.2175V27.1052H103.598V27.325C103.598 28.8894 104.442 29.9265 105.769 29.9265C106.762 29.9265 107.439 29.4343 107.677 28.6345H109.531C109.25 30.1375 108.037 31.4646 105.743 31.4646ZM103.598 25.7429H107.729V25.7253C107.729 24.407 106.912 23.3699 105.673 23.3699C104.416 23.3699 103.598 24.407 103.598 25.7253V25.7429Z" fill="white"/>
</svg>