<svg width="120" height="41" viewBox="0 0 120 41" fill="none" xmlns="http://www.w3.org/2000/svg">
    <rect x="0.5" y="1.3064" width="119" height="39" rx="5.5" fill="black"/>
    <rect x="0.5" y="1.3064" width="119" height="39" rx="5.5" stroke="#A6A6A6"/>
    <path d="M17.8051 20.2681L8.08984 30.8123C8.09076 30.8142 8.09076 30.817 8.09167 30.8189C8.39005 31.9638 9.41203 32.8064 10.6256 32.8064C11.1111 32.8064 11.5664 32.672 11.957 32.4369L11.988 32.4182L22.9232 25.9657L17.8051 20.2681Z" fill="#EA4335"/>
    <path d="M27.6332 18.4726L27.624 18.4661L22.9029 15.6676L17.584 20.5077L22.922 25.9646L27.6177 23.1942C28.4407 22.7388 29.0001 21.8514 29.0001 20.8287C29.0001 19.8116 28.4489 18.9289 27.6332 18.4726Z" fill="#FBBC04"/>
    <path d="M8.08942 10.7996C8.03102 11.0199 8 11.2513 8 11.4902V30.1227C8 30.3616 8.03102 30.593 8.09034 30.8123L18.1386 20.5377L8.08942 10.7996Z" fill="#4285F4"/>
    <path d="M17.8762 20.8064L22.904 15.6658L11.9815 9.18999C11.5846 8.94645 11.1211 8.80648 10.6256 8.80648C9.41197 8.80648 8.38816 9.65096 8.08978 10.7968C8.08978 10.7978 8.08887 10.7987 8.08887 10.7996L17.8762 20.8064Z" fill="#34A853"/>
    <path d="M43.61 12.5164C43.61 13.5164 43.3133 14.3131 42.72 14.9064C42.0533 15.6131 41.1767 15.9664 40.09 15.9664C39.05 15.9664 38.17 15.6064 37.45 14.8864C36.73 14.1664 36.37 13.2797 36.37 12.2264C36.37 11.1731 36.73 10.2864 37.45 9.5664C38.17 8.8464 39.05 8.4864 40.09 8.4864C40.6167 8.4864 41.1133 8.57973 41.58 8.7664C42.0467 8.95306 42.43 9.2164 42.73 9.5564L42.07 10.2164C41.85 9.94973 41.5633 9.74306 41.21 9.5964C40.8633 9.44306 40.49 9.3664 40.09 9.3664C39.31 9.3664 38.65 9.6364 38.11 10.1764C37.5767 10.7231 37.31 11.4064 37.31 12.2264C37.31 13.0464 37.5767 13.7297 38.11 14.2764C38.65 14.8164 39.31 15.0864 40.09 15.0864C40.8033 15.0864 41.3967 14.8864 41.87 14.4864C42.3433 14.0864 42.6167 13.5364 42.69 12.8364H40.09V11.9764H43.56C43.5933 12.1631 43.61 12.3431 43.61 12.5164ZM48.9078 8.6464V9.5264H45.6478V11.7964H48.5878V12.6564H45.6478V14.9264H48.9078V15.8064H44.7278V8.6464H48.9078ZM52.5877 9.5264V15.8064H51.6677V9.5264H49.6677V8.6464H54.5877V9.5264H52.5877ZM58.6654 15.8064H57.7454V8.6464H58.6654V15.8064ZM62.5487 9.5264V15.8064H61.6287V9.5264H59.6287V8.6464H64.5487V9.5264H62.5487ZM74.521 12.2264C74.521 13.2864 74.1677 14.1731 73.461 14.8864C72.7477 15.6064 71.8743 15.9664 70.841 15.9664C69.801 15.9664 68.9277 15.6064 68.221 14.8864C67.5143 14.1731 67.161 13.2864 67.161 12.2264C67.161 11.1664 67.5143 10.2797 68.221 9.5664C68.9277 8.8464 69.801 8.4864 70.841 8.4864C71.881 8.4864 72.7543 8.84973 73.461 9.5764C74.1677 10.2897 74.521 11.1731 74.521 12.2264ZM68.101 12.2264C68.101 13.0531 68.361 13.7364 68.881 14.2764C69.4077 14.8164 70.061 15.0864 70.841 15.0864C71.621 15.0864 72.271 14.8164 72.791 14.2764C73.3177 13.7431 73.581 13.0597 73.581 12.2264C73.581 11.3931 73.3177 10.7097 72.791 10.1764C72.271 9.6364 71.621 9.3664 70.841 9.3664C70.061 9.3664 69.4077 9.6364 68.881 10.1764C68.361 10.7164 68.101 11.3997 68.101 12.2264ZM76.5267 15.8064H75.6067V8.6464H76.7267L80.2067 14.2164H80.2467L80.2067 12.8364V8.6464H81.1267V15.8064H80.1667L76.5267 9.9664H76.4867L76.5267 11.3464V15.8064Z" fill="white"/>
    <path d="M93.5181 32.2161H95.1469V21.2045H93.5181V32.2161ZM108.189 25.171L106.322 29.9452H106.266L104.328 25.171H102.573L105.479 31.8435L103.823 35.5554H105.521L110 25.171H108.189ZM98.9519 30.9652C98.4176 30.9652 97.6739 30.6966 97.6739 30.0298C97.6739 29.1806 98.6001 28.8547 99.4005 28.8547C100.116 28.8547 100.454 29.0106 100.889 29.2229C100.762 30.2429 99.892 30.9652 98.9519 30.9652ZM99.1483 24.9305C97.969 24.9305 96.7469 25.4546 96.2424 26.6165L97.6879 27.2252C97.9969 26.6165 98.5721 26.4174 99.1762 26.4174C100.019 26.4174 100.875 26.9274 100.889 27.8347V27.9474C100.594 27.7774 99.9627 27.5229 99.1902 27.5229C97.632 27.5229 96.0451 28.387 96.0451 30.0016C96.0451 31.4753 97.323 32.4248 98.7546 32.4248C99.8501 32.4248 100.454 31.9289 100.833 31.3475H100.889V32.1976H102.461V27.9756C102.461 26.021 101.015 24.9305 99.1483 24.9305ZM89.0821 26.5117H86.7655V22.7372H89.0821C90.2998 22.7372 90.9911 23.7546 90.9911 24.624C90.9911 25.4775 90.2998 26.5117 89.0821 26.5117ZM89.0402 21.2045H85.1375V32.2161H86.7655V28.0443H89.0402C90.8453 28.0443 92.6199 26.7248 92.6199 24.624C92.6199 22.5232 90.8453 21.2045 89.0402 21.2045ZM67.7583 30.967C66.6332 30.967 65.6913 30.0166 65.6913 28.7111C65.6913 27.3916 66.6332 26.4262 67.7583 26.4262C68.8695 26.4262 69.7406 27.3916 69.7406 28.7111C69.7406 30.0166 68.8695 30.967 67.7583 30.967ZM69.6289 25.7876H69.5722C69.2064 25.3481 68.5038 24.9508 67.6178 24.9508C65.7611 24.9508 64.0599 26.5962 64.0599 28.7111C64.0599 30.8111 65.7611 32.4433 67.6178 32.4433C68.5038 32.4433 69.2064 32.046 69.5722 31.5915H69.6289V32.1315C69.6289 33.5646 68.8695 34.331 67.6457 34.331C66.6471 34.331 66.0282 33.6069 65.7751 32.9965L64.3549 33.5928C64.7626 34.5864 65.8458 35.8064 67.6457 35.8064C69.5582 35.8064 71.1757 34.671 71.1757 31.9042V25.1772H69.6289V25.7876ZM72.3008 32.2161H73.9323V21.2037H72.3008V32.2161ZM76.3362 28.5834C76.2943 27.1362 77.4474 26.398 78.2766 26.398C78.9243 26.398 79.4725 26.7239 79.6549 27.1926L76.3362 28.5834ZM81.3989 27.3344C81.0899 26.4976 80.1472 24.9508 78.2208 24.9508C76.3083 24.9508 74.7196 26.4685 74.7196 28.6971C74.7196 30.797 76.2943 32.4433 78.4032 32.4433C80.1053 32.4433 81.0899 31.3933 81.4976 30.7829L80.2319 29.9311C79.8103 30.5556 79.2333 30.967 78.4032 30.967C77.5739 30.967 76.983 30.5838 76.6033 29.8325L81.5674 27.7598L81.3989 27.3344ZM41.8501 26.1003V27.6894H45.6184C45.5058 28.5834 45.2107 29.2361 44.7612 29.6898C44.2121 30.2438 43.3541 30.8543 41.8501 30.8543C39.5291 30.8543 37.7152 28.9666 37.7152 26.6253C37.7152 24.2831 39.5291 22.3963 41.8501 22.3963C43.1018 22.3963 44.0157 22.8931 44.6905 23.5317L45.8017 22.4104C44.8589 21.5023 43.6081 20.8064 41.8501 20.8064C38.6719 20.8064 36 23.4181 36 26.6253C36 29.8325 38.6719 32.4433 41.8501 32.4433C43.5653 32.4433 44.8589 31.8752 45.8715 30.8111C46.9129 29.7611 47.2358 28.2857 47.2358 27.093C47.2358 26.7239 47.2079 26.3839 47.1512 26.1003H41.8501ZM51.5208 30.967C50.3957 30.967 49.425 30.0307 49.425 28.6971C49.425 27.3485 50.3957 26.4262 51.5208 26.4262C52.6451 26.4262 53.6158 27.3485 53.6158 28.6971C53.6158 30.0307 52.6451 30.967 51.5208 30.967ZM51.5208 24.9508C49.4669 24.9508 47.7936 26.5258 47.7936 28.6971C47.7936 30.8543 49.4669 32.4433 51.5208 32.4433C53.5739 32.4433 55.2472 30.8543 55.2472 28.6971C55.2472 26.5258 53.5739 24.9508 51.5208 24.9508ZM59.65 30.967C58.5249 30.967 57.5542 30.0307 57.5542 28.6971C57.5542 27.3485 58.5249 26.4262 59.65 26.4262C60.7752 26.4262 61.745 27.3485 61.745 28.6971C61.745 30.0307 60.7752 30.967 59.65 30.967ZM59.65 24.9508C57.597 24.9508 55.9237 26.5258 55.9237 28.6971C55.9237 30.8543 57.597 32.4433 59.65 32.4433C61.7031 32.4433 63.3764 30.8543 63.3764 28.6971C63.3764 26.5258 61.7031 24.9508 59.65 24.9508Z" fill="white"/>
</svg>