<svg width="1758" height="1428" viewBox="0 0 1758 1428" fill="none" xmlns="http://www.w3.org/2000/svg">
    <g filter="url(#filter0_f_7594_20607)">
        <path d="M827.031 518.374C761.426 511.579 726.96 543.148 722.07 590.027C711.867 687.846 1287.35 782.61 1383.56 710.118C1454.26 656.843 1454.8 571.568 1389.99 534.556C1316.75 492.729 1321.18 485.743 1242.96 504.708C1177.69 520.532 1102.84 548.672 1031.72 560.35C965.146 571.281 885.305 524.41 827.031 518.374Z" fill="#193C37"/>
    </g>
    <g filter="url(#filter1_f_7594_20607)">
        <path d="M418.384 832.428C357.14 823.813 324.966 863.835 320.401 923.264C310.876 1047.27 848.1 1167.41 937.91 1075.51C1003.91 1007.97 1004.42 899.864 943.918 852.943C875.547 799.917 879.676 791.061 806.655 815.103C745.727 835.164 675.858 870.837 609.462 885.642C547.316 899.5 472.783 840.079 418.384 832.428Z" fill="#243669"/>
    </g>
    <defs>
        <filter id="filter0_f_7594_20607" x="401.937" y="174.711" width="1355.69" height="880.985" filterUnits="userSpaceOnUse" color-interpolation-filters="sRGB">
            <feFlood flood-opacity="0" result="BackgroundImageFix"/>
            <feBlend mode="normal" in="SourceGraphic" in2="BackgroundImageFix" result="shape"/>
            <feGaussianBlur stdDeviation="160" result="effect1_foregroundBlur_7594_20607"/>
        </filter>
        <filter id="filter1_f_7594_20607" x="0.276367" y="482.429" width="1308.11" height="945.504" filterUnits="userSpaceOnUse" color-interpolation-filters="sRGB">
            <feFlood flood-opacity="0" result="BackgroundImageFix"/>
            <feBlend mode="normal" in="SourceGraphic" in2="BackgroundImageFix" result="shape"/>
            <feGaussianBlur stdDeviation="160" result="effect1_foregroundBlur_7594_20607"/>
        </filter>
    </defs>
</svg>