<svg xmlns="http://www.w3.org/2000/svg" width="106" height="34" viewBox="0 0 106 34" fill="none">
    <path fill-rule="evenodd" clip-rule="evenodd" d="M13.2082 14.026H13.2131V13.1302H13.2082V12.9595C13.2082 12.5758 12.8944 12.2637 12.5123 12.2637H8.32585C7.94541 12.2637 7.63488 11.9531 7.63488 11.5727V10.1712C7.63488 9.79079 7.94541 9.48025 8.32585 9.48025H12.5286C12.9041 9.48025 13.2114 9.17297 13.2114 8.79741V8.78441H13.2147V7.38295C13.2147 7.36669 13.2114 7.35206 13.2066 7.34068C13.1708 7.02039 12.9107 6.76514 12.5871 6.7375H12.5839C12.566 6.7375 12.5481 6.73588 12.5302 6.73588H5.57822C5.20265 6.73588 4.897 7.04315 4.897 7.41872V7.53577H4.89212V17.185C4.89212 17.5654 4.58159 17.876 4.20115 17.876H2.80132C2.42088 17.876 2.11035 17.5654 2.11035 17.185V4.64507C2.11035 4.26463 2.42088 3.9541 2.80132 3.9541H4.20115C4.21578 3.9541 4.23042 3.9541 4.24505 3.9541H15.3786C15.7591 3.9541 16.0696 4.26463 16.0696 4.64507V6.04653C16.0696 9.26564 16.081 12.5205 16.081 15.7527V17.1541C16.081 17.5345 15.7705 17.8451 15.39 17.8451H12.7237C12.0538 17.8662 11.3369 17.7573 10.8654 18.1442C10.2004 18.6889 9.08185 19.8936 8.29496 20.5699C7.95191 20.8658 7.64301 20.752 7.64301 19.8839C7.64301 19.0157 7.67064 18.0125 7.67064 17.1525V15.751C7.67064 15.408 7.92427 15.1202 8.25431 15.0682H12.514C12.8976 15.0682 13.2098 14.7544 13.2098 14.3723V14.0277L13.2082 14.026Z" fill="#E67059"/>
    <path fill-rule="evenodd" clip-rule="evenodd" d="M2.39658 3.08541C2.97537 2.97486 13.444 3.05615 14.9902 3.05452C15.8112 3.05452 16.1233 3.03014 16.6355 3.50325C17.1037 3.93734 17.1281 4.27226 17.1265 5.04615C17.1216 7.77589 17.1265 10.5073 17.1265 13.237C17.1265 14.4889 17.2257 16.1635 17.12 17.3633C17.0679 17.9519 16.6859 18.3892 16.2664 18.6038C15.7445 18.8688 15.0259 18.7794 14.4 18.7794C10.9272 18.7794 11.6426 18.7599 8.7649 21.5059C8.03979 22.1969 8.65435 22.3806 8.85757 22.3562C9.07056 22.3302 9.955 21.3807 10.2379 21.106C11.1402 20.2296 11.6426 19.5257 12.8083 19.5224C13.9285 19.5192 15.8762 19.7126 16.72 19.2151C17.7849 18.5876 17.9052 17.8202 17.9052 16.2724C17.9052 13.5605 17.9052 10.8503 17.9052 8.14007C17.9052 7.21824 18.0158 4.7974 17.8305 4.05928C17.5817 3.06916 16.7054 2.31478 15.4633 2.31153H2.79165C1.51213 2.3099 0.637445 3.00737 0.364308 4.004C0.182216 4.67058 0.286269 7.14833 0.287895 8.02464L0.273262 16.2155C0.273262 16.952 0.226113 17.391 0.539896 18.0023C1.19022 19.2688 2.37544 19.2363 3.44035 19.2363C3.69723 19.2363 4.27115 19.2672 4.49063 19.2314C4.78653 19.1842 4.95074 18.8168 4.70686 18.5941C4.21912 18.1454 2.24375 19.0818 1.31866 17.8186C0.832543 17.1536 1.03902 14.962 1.03902 13.9816L1.05365 5.8493C1.05365 4.81691 0.800027 3.39269 2.39333 3.08704" fill="#E67059"/>
    <path d="M102.594 21.5093V13.0762C102.594 11.8308 102.356 10.9252 101.878 10.3546C101.404 9.78392 100.628 9.49615 99.5501 9.49615C99.0526 9.49615 98.5193 9.63597 97.9519 9.91886C97.3845 10.1969 96.9439 10.5513 96.6285 10.9691V21.5109H93.2273V6.93224H95.6758L96.2985 8.29305C97.2236 7.2005 98.5892 6.6526 100.391 6.6526C102.192 6.6526 103.489 7.17286 104.493 8.21338C105.491 9.24903 105.993 10.7041 105.993 12.5624V21.5109H102.592L102.594 21.5093ZM86.1566 14.624C85.5762 14.5118 85.1437 14.4565 84.8511 14.4565C82.1718 14.4565 80.8337 15.3442 80.8337 17.1147C80.8337 18.43 81.5913 19.0852 83.1001 19.0852C85.1405 19.0852 86.1566 18.0545 86.1566 15.9962V14.6256V14.624ZM86.4915 20.0542C86.1859 20.5598 85.6461 20.9793 84.8787 21.3028C84.113 21.6231 83.3131 21.7857 82.4774 21.7857C80.9117 21.7857 79.6761 21.3906 78.7803 20.6054C77.8828 19.8201 77.4325 18.7048 77.4325 17.2611C77.4325 15.5702 78.0649 14.2452 79.3282 13.2941C80.5915 12.3413 82.3896 11.8633 84.7178 11.8633C85.1177 11.8633 85.586 11.9284 86.1306 12.0584C86.1306 10.3481 85.0478 9.49453 82.8839 9.49453C81.606 9.49453 80.5329 9.70751 79.6729 10.1351L78.9396 7.48664C80.1102 6.92899 81.5052 6.65097 83.1212 6.65097C85.3421 6.65097 86.9728 7.15823 88.0084 8.17111C89.0441 9.18399 89.5595 11.0976 89.5595 13.9216V17.0399C89.5595 18.9812 89.9497 20.2038 90.73 20.7013C90.4472 21.1988 90.135 21.4996 89.792 21.6166C89.4489 21.7337 89.0538 21.789 88.6084 21.789C88.1157 21.789 87.6751 21.6069 87.2849 21.2411C86.8947 20.8785 86.6297 20.4834 86.4948 20.0558L86.4915 20.0542ZM76.1871 4.09031C75.4441 3.84481 74.8767 3.72288 74.4784 3.72288C73.8362 3.72288 73.2932 3.99764 72.8428 4.55042C72.3973 5.09832 72.173 5.77791 72.173 6.57618V6.92899H75.184V9.71564H72.2299V21.5077H68.8287V9.71564H66.7102V6.92899H68.8287C68.9035 5.14547 69.4286 3.70499 70.4171 2.60919C71.4023 1.51177 72.6754 0.963867 74.2361 0.963867C75.0442 0.963867 76.0294 1.14108 77.1919 1.49876L76.1887 4.09031H76.1871ZM54.8922 14.1866C54.8922 17.3976 56.0498 18.9991 58.3584 18.9991C59.4168 18.9991 60.2541 18.5812 60.8768 17.7488C61.4946 16.9131 61.8068 15.723 61.8068 14.185C61.8068 11.0212 60.6589 9.43762 58.36 9.43762C57.2951 9.43762 56.4546 9.85546 55.8319 10.6879C55.2043 11.5235 54.8938 12.6909 54.8938 14.1866H54.8922ZM51.3528 14.1866C51.3528 11.9609 51.9933 10.1497 53.2761 8.7499C54.5573 7.3517 56.2546 6.64935 58.3584 6.64935C60.5695 6.64935 62.2848 7.32406 63.5106 8.66536C64.7316 10.0083 65.3462 11.8487 65.3462 14.185C65.3462 16.5213 64.7235 18.3569 63.4781 19.7274C62.2295 21.098 60.524 21.7857 58.3584 21.7857C56.1928 21.7857 54.4239 21.0931 53.1964 19.7095C51.9657 18.3243 51.3528 16.4807 51.3528 14.185V14.1866ZM41.7491 9.66199H40.0485V6.93061H41.7491V3.97163L45.1503 2.723V6.93224H49.1644V9.66361H45.1503V16.0563C45.1503 17.1017 45.3129 17.8398 45.6429 18.2723C45.9729 18.7048 46.5436 18.9178 47.3663 18.9178C48.1889 18.9178 48.9547 18.695 49.6652 18.2479V21.3792C48.875 21.6524 47.7467 21.7873 46.2786 21.7873C44.8105 21.7873 43.7049 21.3792 42.9245 20.5566C42.1393 19.7339 41.7491 18.5633 41.7491 17.0448V9.66199ZM35.8685 1.27114C36.4164 1.27114 36.8814 1.46624 37.2667 1.85156C37.652 2.23688 37.8471 2.70186 37.8471 3.24976C37.8471 3.79767 37.652 4.26265 37.2667 4.64797C36.8814 5.03329 36.4164 5.22838 35.8685 5.22838C35.3206 5.22838 34.8556 5.03329 34.4703 4.64797C34.085 4.26265 33.8899 3.79279 33.8899 3.24976C33.8899 2.70674 34.085 2.23688 34.4703 1.85156C34.8556 1.46624 35.3255 1.27114 35.8685 1.27114ZM34.1126 21.5093V9.71726H28.0646V21.5093H24.6634V9.71726H22.5449V6.93061H24.6634C24.7382 5.14709 25.2633 3.70662 26.2518 2.61082C27.237 1.51339 28.51 0.96549 30.0708 0.96549C30.8789 0.96549 31.8641 1.14271 33.0266 1.50038L32.0234 4.09194C31.2804 3.84644 30.713 3.7245 30.3147 3.7245C29.6725 3.7245 29.1295 3.99927 28.6791 4.55205C28.2337 5.09995 28.0093 5.77954 28.0093 6.57781C28.0093 6.69812 28.0272 6.81518 28.0646 6.93061H37.5691V21.5093H34.1126Z" fill="#F4F5F5"/>
    <path d="M41.5152 30.199C41.5152 30.0348 41.5006 29.8787 41.4697 29.7324C41.4388 29.5861 41.3884 29.4592 41.3185 29.3487C41.2486 29.2381 41.1543 29.1503 41.034 29.0869C40.9153 29.0219 40.7657 28.9894 40.5869 28.9894C40.4227 28.9894 40.2812 29.0186 40.1625 29.0772C40.0439 29.1357 39.9463 29.2186 39.8699 29.3259C39.7935 29.4332 39.7366 29.56 39.6992 29.7064C39.6602 29.8527 39.6423 30.012 39.6423 30.186C39.6423 30.3599 39.6569 30.5095 39.6878 30.6558C39.7187 30.8022 39.7691 30.929 39.8406 31.0395C39.9122 31.1485 40.0081 31.2346 40.1268 31.298C40.2471 31.3631 40.395 31.3956 40.5739 31.3956C40.7365 31.3956 40.8763 31.3663 40.9966 31.3078C41.1169 31.2493 41.2145 31.168 41.2909 31.0607C41.3689 30.955 41.4242 30.8282 41.46 30.6819C41.4957 30.5355 41.5136 30.3746 41.5136 30.199M42.0956 30.1648C42.0956 30.412 42.0631 30.6396 41.9981 30.8493C41.9331 31.0574 41.8355 31.2363 41.7071 31.3875C41.577 31.5387 41.4161 31.6557 41.2226 31.7403C41.0275 31.8248 40.8031 31.8671 40.5479 31.8671C40.2926 31.8671 40.0796 31.8297 39.8943 31.7549C39.7089 31.6801 39.5545 31.5728 39.4309 31.4314C39.3074 31.2899 39.2147 31.1176 39.1545 30.916C39.0928 30.7127 39.0635 30.4851 39.0635 30.2266C39.0635 29.9681 39.096 29.7519 39.1594 29.5438C39.2245 29.3357 39.3204 29.1552 39.4488 29.0056C39.5773 28.8544 39.7382 28.739 39.9317 28.6545C40.1252 28.5715 40.3511 28.5293 40.6096 28.5293C40.8682 28.5293 41.0763 28.5667 41.2632 28.6415C41.4486 28.7146 41.603 28.8235 41.7266 28.965C41.8501 29.1064 41.9428 29.2788 42.0046 29.4804C42.0664 29.6836 42.0973 29.9112 42.0973 30.1665L42.0956 30.1648ZM37.6637 31.6752C37.6539 31.7061 37.6409 31.7321 37.623 31.7516C37.6051 31.7712 37.5808 31.7858 37.5482 31.7955C37.5173 31.8053 37.4783 31.8134 37.4312 31.8183C37.3857 31.8232 37.3288 31.8248 37.2605 31.8248C37.1922 31.8248 37.132 31.8232 37.0833 31.8183C37.0345 31.8134 36.9955 31.8069 36.9629 31.7955C36.9321 31.7858 36.9093 31.7712 36.893 31.7516C36.8768 31.7321 36.8638 31.7061 36.8556 31.6752L35.9419 28.3781H35.9354L35.0916 31.6752C35.0851 31.7061 35.0737 31.7321 35.0575 31.7516C35.0412 31.7712 35.0201 31.7858 34.9908 31.7955C34.9616 31.8053 34.9225 31.8134 34.877 31.8183C34.8299 31.8232 34.7713 31.8248 34.6998 31.8248C34.6283 31.8248 34.5632 31.8232 34.5128 31.8183C34.4624 31.8134 34.4234 31.8069 34.3909 31.7955C34.36 31.7858 34.3356 31.7712 34.3177 31.7516C34.2999 31.7321 34.2885 31.7061 34.282 31.6752L33.1276 27.6416C33.1146 27.5896 33.1065 27.5489 33.1065 27.5196C33.1065 27.4904 33.1146 27.4676 33.1341 27.4514C33.152 27.4367 33.1829 27.4253 33.2268 27.4221C33.2691 27.4172 33.3276 27.4156 33.3992 27.4156C33.4707 27.4156 33.5243 27.4156 33.5634 27.4205C33.604 27.4237 33.6349 27.4302 33.656 27.44C33.6772 27.4481 33.6918 27.4611 33.6999 27.4774C33.7081 27.492 33.7146 27.5131 33.7178 27.5392L34.6998 31.1972H34.7031L35.6347 27.5457C35.6412 27.5213 35.6493 27.5001 35.6607 27.4839C35.6704 27.466 35.6867 27.4546 35.7094 27.4449C35.7322 27.4367 35.7647 27.4302 35.807 27.4253C35.8493 27.4205 35.9029 27.4188 35.9712 27.4188C36.0346 27.4188 36.085 27.4205 36.1208 27.4253C36.1582 27.4302 36.1891 27.4367 36.2102 27.4449C36.233 27.4546 36.2492 27.466 36.259 27.4839C36.2687 27.5018 36.2768 27.5213 36.285 27.5457L37.2865 31.1972H37.293L38.2538 27.5408C38.2603 27.5196 38.2668 27.5001 38.275 27.4822C38.2815 27.4644 38.2961 27.453 38.3172 27.4432C38.3384 27.4351 38.3693 27.4286 38.4083 27.4237C38.4473 27.4188 38.4993 27.4172 38.5644 27.4172C38.6294 27.4172 38.6847 27.4188 38.7253 27.4253C38.7643 27.4302 38.7936 27.4416 38.8115 27.4579C38.8294 27.4741 38.8375 27.4953 38.8375 27.5261C38.8375 27.5554 38.8294 27.5944 38.8196 27.6465L37.662 31.6769L37.6637 31.6752ZM30.5507 32.0232C30.5507 31.8931 30.4971 31.7923 30.3898 31.7224C30.2841 31.6525 30.1394 31.6135 29.9573 31.6102L29.1737 31.5842C29.1021 31.6411 29.042 31.6931 28.9964 31.7435C28.9509 31.7939 28.9152 31.8411 28.8875 31.8882C28.8615 31.9337 28.842 31.9809 28.8322 32.0248C28.8209 32.0703 28.8176 32.1158 28.8176 32.1613C28.8176 32.3077 28.8908 32.4182 29.0387 32.493C29.1883 32.5678 29.3931 32.6052 29.6581 32.6052C29.8256 32.6052 29.9671 32.5889 30.0809 32.5564C30.1947 32.5223 30.2857 32.48 30.354 32.4264C30.4239 32.3727 30.4743 32.3109 30.5052 32.241C30.5345 32.1711 30.5507 32.0979 30.5507 32.0215V32.0232ZM30.2743 29.6202C30.2743 29.4137 30.2174 29.2528 30.1036 29.1373C29.9898 29.0219 29.8289 28.9634 29.6191 28.9634C29.5118 28.9634 29.4159 28.9813 29.3379 29.017C29.2582 29.0528 29.1915 29.1032 29.1379 29.165C29.0859 29.2284 29.0452 29.3015 29.0208 29.3828C28.9948 29.4641 28.9818 29.5519 28.9818 29.6413C28.9818 29.8413 29.0387 29.9974 29.1525 30.1128C29.2663 30.2266 29.4257 30.2852 29.6305 30.2852C29.7394 30.2852 29.8354 30.2673 29.9167 30.2331C29.9979 30.1974 30.0646 30.1502 30.1166 30.0884C30.1703 30.0267 30.2093 29.9551 30.2337 29.8738C30.2597 29.7925 30.2727 29.7096 30.2727 29.6218L30.2743 29.6202ZM31.1441 28.8235C31.1441 28.9032 31.1344 28.9601 31.1116 28.9959C31.0905 29.03 31.0629 29.0479 31.0287 29.0479H30.593C30.6727 29.1292 30.7279 29.217 30.7588 29.3145C30.7897 29.4105 30.806 29.5129 30.806 29.6169C30.806 29.7925 30.7783 29.947 30.7214 30.0819C30.6645 30.2169 30.5849 30.3307 30.4792 30.4234C30.3751 30.5176 30.2499 30.5892 30.1069 30.6396C29.9622 30.6884 29.8028 30.7127 29.6273 30.7127C29.5037 30.7127 29.3866 30.6965 29.2761 30.664C29.1639 30.6315 29.0777 30.5908 29.0176 30.5404C28.9802 30.5811 28.9477 30.6266 28.9233 30.6786C28.8989 30.7323 28.8859 30.7924 28.8859 30.8591C28.8859 30.9387 28.9233 31.0038 28.9948 31.0558C29.068 31.1078 29.1655 31.1355 29.2858 31.1403L30.076 31.1745C30.2256 31.1794 30.3638 31.1989 30.4889 31.2363C30.6141 31.2753 30.7247 31.3257 30.8157 31.3956C30.9084 31.4639 30.9799 31.5484 31.0303 31.6476C31.0824 31.7484 31.1084 31.8638 31.1084 31.9955C31.1084 32.1353 31.0791 32.267 31.0206 32.3922C30.9621 32.5174 30.8726 32.628 30.7523 32.7239C30.632 32.8198 30.4792 32.8962 30.2922 32.9499C30.1052 33.0051 29.8858 33.0328 29.6305 33.0328C29.3753 33.0328 29.1769 33.0117 29.0046 32.971C28.8322 32.9287 28.6908 32.8718 28.5802 32.8003C28.4713 32.7271 28.39 32.6426 28.3412 32.5418C28.2908 32.441 28.2681 32.3321 28.2681 32.2166C28.2681 32.1418 28.2778 32.0703 28.2941 32.0004C28.312 31.9305 28.3396 31.8638 28.377 31.8004C28.4144 31.7386 28.4599 31.6769 28.5152 31.62C28.5705 31.5631 28.6339 31.5061 28.707 31.4492C28.5981 31.3923 28.5168 31.3208 28.4648 31.2363C28.4128 31.1501 28.3868 31.059 28.3868 30.9599C28.3868 30.8233 28.4144 30.6997 28.4697 30.5924C28.525 30.4851 28.5932 30.3876 28.6745 30.303C28.6062 30.2201 28.551 30.1258 28.5103 30.0218C28.4697 29.9161 28.4502 29.7893 28.4502 29.6413C28.4502 29.469 28.4794 29.3129 28.538 29.1764C28.5965 29.0398 28.6778 28.9227 28.7802 28.8284C28.8843 28.7341 29.0078 28.661 29.1525 28.6106C29.2972 28.5602 29.4565 28.5342 29.6273 28.5342C29.7216 28.5342 29.8061 28.5407 29.8874 28.5504C29.9671 28.5618 30.0418 28.5764 30.1118 28.5959H31.0287C31.0677 28.5959 31.0954 28.6138 31.1149 28.6512C31.1344 28.6886 31.1441 28.7455 31.1441 28.8219V28.8235ZM27.5917 31.7191C27.5917 31.737 27.5869 31.7516 27.5771 31.7646C27.5673 31.776 27.5543 31.7874 27.5332 31.7972C27.5121 31.8053 27.4844 31.8118 27.4487 31.8167C27.4129 31.8216 27.3674 31.8232 27.3137 31.8232C27.2568 31.8232 27.2097 31.8216 27.1739 31.8167C27.1365 31.8118 27.1089 31.8053 27.0877 31.7972C27.0666 31.7874 27.0536 31.776 27.0438 31.7646C27.0341 31.7516 27.0292 31.737 27.0292 31.7191V29.9405C27.0292 29.7681 27.0162 29.6267 26.9886 29.5227C26.9625 29.417 26.9219 29.3259 26.8715 29.2495C26.8195 29.1731 26.7544 29.1146 26.6715 29.0739C26.5902 29.0333 26.4943 29.0138 26.3886 29.0138C26.2488 29.0138 26.1106 29.0625 25.9724 29.1617C25.8326 29.2609 25.6879 29.4056 25.5367 29.5974V31.7208C25.5367 31.7386 25.5318 31.7533 25.5221 31.7663C25.5123 31.7777 25.4993 31.789 25.4782 31.7988C25.457 31.8069 25.4294 31.8134 25.3936 31.8183C25.3579 31.8232 25.3123 31.8248 25.2554 31.8248C25.1985 31.8248 25.1546 31.8232 25.1189 31.8183C25.0815 31.8134 25.0538 31.8069 25.0327 31.7988C25.0116 31.789 24.9953 31.7777 24.9872 31.7663C24.979 31.7533 24.9758 31.7386 24.9758 31.7208V28.6837C24.9758 28.6658 24.979 28.6496 24.9856 28.6382C24.9921 28.6268 25.0051 28.6154 25.0262 28.6041C25.0473 28.5943 25.0717 28.5878 25.1042 28.5829C25.1351 28.5797 25.1774 28.5781 25.2294 28.5781C25.2815 28.5781 25.3205 28.5781 25.353 28.5829C25.3855 28.5862 25.4115 28.5927 25.4294 28.6041C25.4473 28.6154 25.4603 28.6268 25.4684 28.6382C25.4749 28.6512 25.4798 28.6658 25.4798 28.6837V29.0853C25.6505 28.8935 25.8196 28.7536 25.9903 28.6642C26.1594 28.5748 26.3301 28.5309 26.5024 28.5309C26.704 28.5309 26.8748 28.565 27.0129 28.6333C27.1511 28.7016 27.2617 28.7943 27.3479 28.9081C27.434 29.0235 27.4942 29.1568 27.5316 29.3113C27.569 29.4657 27.5869 29.6511 27.5869 29.8673V31.7208L27.5917 31.7191ZM24.0117 27.6578C24.0117 27.7895 23.9873 27.8789 23.9369 27.9245C23.8881 27.9716 23.7971 27.996 23.6638 27.996C23.5304 27.996 23.4426 27.9732 23.3939 27.9261C23.3451 27.8806 23.3207 27.7928 23.3207 27.6643C23.3207 27.5359 23.3467 27.4449 23.3955 27.3977C23.4443 27.3506 23.5353 27.3262 23.6686 27.3262C23.802 27.3262 23.8898 27.3489 23.9369 27.3945C23.9857 27.4416 24.0101 27.5278 24.0101 27.6562L24.0117 27.6578ZM23.7759 28.5976C23.8426 28.5976 23.8898 28.6122 23.9141 28.6431C23.9385 28.6723 23.9515 28.7162 23.9515 28.7764V31.7191C23.9515 31.737 23.9467 31.7516 23.9369 31.7646C23.9271 31.776 23.9125 31.7874 23.8914 31.7972C23.8702 31.8053 23.841 31.8118 23.8052 31.8167C23.7694 31.8216 23.7255 31.8232 23.6735 31.8232C23.6166 31.8232 23.5711 31.8216 23.5353 31.8167C23.4996 31.8118 23.4703 31.8053 23.4492 31.7972C23.428 31.7874 23.4134 31.776 23.4036 31.7646C23.3939 31.7516 23.3906 31.737 23.3906 31.7191V29.0609H21.8217V30.7501C21.8217 30.9582 21.8526 31.1159 21.9144 31.2216C21.9762 31.3289 22.0867 31.3826 22.246 31.3826C22.2981 31.3826 22.3436 31.3777 22.3859 31.3679C22.4265 31.3582 22.4623 31.3468 22.4932 31.3354C22.5257 31.3241 22.5517 31.3143 22.5745 31.3029C22.5972 31.2932 22.6167 31.2883 22.6362 31.2883C22.646 31.2883 22.6574 31.2899 22.6671 31.2964C22.6769 31.3029 22.685 31.3127 22.6915 31.3289C22.698 31.3452 22.7013 31.3663 22.7062 31.394C22.711 31.42 22.7127 31.4541 22.7127 31.4948C22.7127 31.5598 22.7078 31.6118 22.6997 31.6476C22.6899 31.685 22.6769 31.7126 22.659 31.7321C22.6411 31.7516 22.6135 31.7695 22.5793 31.7842C22.5419 31.8004 22.5013 31.8134 22.4542 31.8232C22.4086 31.8329 22.3599 31.8411 22.3078 31.8492C22.2558 31.8557 22.2022 31.8589 22.1501 31.8589C21.9924 31.8589 21.8575 31.8378 21.7453 31.7972C21.6315 31.7565 21.5404 31.6931 21.4673 31.6086C21.3957 31.524 21.3437 31.4167 21.3112 31.2883C21.2771 31.1598 21.2624 31.007 21.2624 30.8331V29.0625H20.8348C20.8023 29.0625 20.7747 29.0447 20.7535 29.0089C20.734 28.9731 20.7243 28.9146 20.7243 28.8333C20.7243 28.791 20.7259 28.7553 20.7324 28.726C20.7389 28.6951 20.747 28.6723 20.7535 28.6528C20.7633 28.635 20.7763 28.6203 20.7893 28.6122C20.804 28.6041 20.8202 28.6008 20.8397 28.6008H21.2641V27.8789C21.2641 27.8627 21.2673 27.8481 21.2754 27.8351C21.2836 27.8204 21.2982 27.809 21.321 27.7993C21.3421 27.7895 21.3697 27.7814 21.4071 27.7765C21.4429 27.7716 21.4884 27.77 21.5437 27.77C21.599 27.77 21.6461 27.7716 21.6819 27.7765C21.7193 27.7814 21.7469 27.7879 21.7681 27.7993C21.7892 27.809 21.8022 27.8204 21.812 27.8351C21.8217 27.8481 21.825 27.8627 21.825 27.8789V28.6008H23.7776L23.7759 28.5976ZM20.3942 31.2509C20.3942 31.2883 20.3942 31.3224 20.391 31.3501C20.3894 31.3793 20.3861 31.4021 20.3796 31.4216C20.3731 31.4411 20.3666 31.4574 20.3585 31.472C20.3503 31.4866 20.3325 31.5094 20.3048 31.537C20.2772 31.5663 20.2284 31.6004 20.1618 31.6427C20.0935 31.685 20.0171 31.7224 19.9341 31.7549C19.848 31.7874 19.7569 31.8151 19.6594 31.8346C19.5602 31.8557 19.4578 31.8655 19.3521 31.8655C19.1326 31.8655 18.9391 31.8297 18.7717 31.7565C18.6026 31.685 18.4611 31.5809 18.3473 31.4427C18.2335 31.3045 18.1474 31.1338 18.0872 30.9339C18.0271 30.7323 17.9978 30.5014 17.9978 30.238C17.9978 29.9405 18.0352 29.682 18.1083 29.4674C18.1815 29.2528 18.2823 29.0772 18.4091 28.9406C18.5376 28.8024 18.6855 28.7016 18.8578 28.635C19.0302 28.5699 19.2172 28.5358 19.4171 28.5358C19.5131 28.5358 19.6073 28.5455 19.6984 28.5634C19.7911 28.5813 19.874 28.6057 19.9504 28.6333C20.0268 28.6626 20.0951 28.6967 20.1552 28.7358C20.2154 28.7732 20.2593 28.8073 20.2853 28.8333C20.3113 28.8593 20.3308 28.8821 20.3422 28.8983C20.352 28.9146 20.3601 28.9325 20.3682 28.9552C20.3747 28.9764 20.378 29.0008 20.3812 29.0284C20.3829 29.0544 20.3845 29.0902 20.3845 29.1292C20.3845 29.217 20.3747 29.2788 20.3552 29.3145C20.3341 29.3487 20.3097 29.3666 20.2804 29.3666C20.2479 29.3666 20.2073 29.3487 20.165 29.3097C20.1211 29.2723 20.0658 29.2316 19.9975 29.1861C19.9293 29.1406 19.848 29.0999 19.752 29.0625C19.6561 29.0251 19.5439 29.0056 19.4139 29.0056C19.1456 29.0056 18.9391 29.1081 18.7961 29.3145C18.653 29.5194 18.5815 29.8169 18.5815 30.2071C18.5815 30.4022 18.5993 30.5729 18.6367 30.7209C18.6758 30.8672 18.7294 30.9891 18.8026 31.0883C18.8741 31.1859 18.9619 31.2606 19.0676 31.3094C19.1716 31.3582 19.2919 31.3826 19.4269 31.3826C19.5618 31.3826 19.6691 31.3615 19.7651 31.3208C19.861 31.2802 19.9439 31.2346 20.0154 31.1859C20.087 31.1371 20.1471 31.0932 20.1959 31.0542C20.2447 31.0135 20.2804 30.994 20.3097 30.994C20.3243 30.994 20.339 30.9989 20.3503 31.007C20.3617 31.0168 20.3715 31.0314 20.3796 31.0525C20.3877 31.0753 20.3942 31.1013 20.3975 31.1338C20.4007 31.1664 20.4024 31.2054 20.4024 31.2509H20.3942ZM16.7979 29.9031C16.8044 29.6104 16.741 29.3796 16.6028 29.2137C16.4663 29.0463 16.2647 28.9634 15.9964 28.9634C15.8582 28.9634 15.7379 28.9894 15.6339 29.0414C15.5298 29.0934 15.4436 29.1617 15.3737 29.2495C15.3038 29.3341 15.2485 29.4349 15.2111 29.547C15.1737 29.6608 15.151 29.7795 15.1461 29.9047H16.7979V29.9031ZM17.3588 30.0673C17.3588 30.1551 17.3361 30.2169 17.2922 30.2559C17.2483 30.2933 17.1979 30.3112 17.141 30.3112H15.1461C15.1461 30.4803 15.164 30.6315 15.1965 30.7664C15.229 30.903 15.2859 31.0184 15.3656 31.1143C15.4436 31.2119 15.5461 31.285 15.6712 31.3371C15.7981 31.3891 15.9525 31.4151 16.1346 31.4151C16.2793 31.4151 16.4077 31.4037 16.5183 31.3793C16.6321 31.3566 16.7297 31.3306 16.8109 31.3013C16.8922 31.272 16.9605 31.246 17.0125 31.2233C17.0662 31.1989 17.1052 31.1875 17.1329 31.1875C17.1491 31.1875 17.1637 31.1907 17.1751 31.1989C17.1865 31.207 17.1963 31.2184 17.2028 31.2346C17.2093 31.2493 17.2158 31.272 17.219 31.2997C17.2223 31.3289 17.2239 31.3615 17.2239 31.4021C17.2239 31.4314 17.2239 31.4557 17.2206 31.4785C17.219 31.4996 17.2158 31.5192 17.2125 31.5354C17.2093 31.5533 17.2028 31.5679 17.1946 31.5826C17.1865 31.5956 17.1768 31.6069 17.1654 31.62C17.1524 31.633 17.115 31.6525 17.0564 31.6801C16.9947 31.7094 16.9166 31.7354 16.8207 31.763C16.7232 31.789 16.6126 31.8134 16.4858 31.8346C16.359 31.8573 16.224 31.8671 16.081 31.8671C15.8306 31.8671 15.6143 31.8329 15.4257 31.7614C15.2372 31.6931 15.0811 31.5891 14.9526 31.4525C14.8242 31.3143 14.7283 31.1436 14.6632 30.9355C14.5982 30.729 14.5657 30.4884 14.5657 30.2136C14.5657 29.9535 14.5998 29.7177 14.6665 29.5096C14.7332 29.3015 14.8323 29.126 14.9575 28.9796C15.0843 28.8349 15.2388 28.7244 15.4176 28.6463C15.5981 28.5699 15.7981 28.5293 16.0208 28.5293C16.2582 28.5293 16.4614 28.5667 16.6289 28.6447C16.7963 28.7211 16.9329 28.8252 17.0418 28.9536C17.1491 29.0821 17.2288 29.2349 17.2792 29.4088C17.3296 29.5828 17.3556 29.7698 17.3556 29.9681V30.0689L17.3588 30.0673ZM13.756 31.7191C13.756 31.737 13.7512 31.7516 13.7414 31.7646C13.7316 31.776 13.7186 31.7874 13.6975 31.7972C13.6764 31.8053 13.6487 31.8118 13.613 31.8167C13.5772 31.8216 13.5317 31.8232 13.478 31.8232C13.4211 31.8232 13.374 31.8216 13.3382 31.8167C13.3008 31.8118 13.2732 31.8053 13.252 31.7972C13.2309 31.7874 13.2179 31.776 13.2081 31.7646C13.1984 31.7516 13.1935 31.737 13.1935 31.7191V29.9405C13.1935 29.7681 13.1805 29.6267 13.1529 29.5227C13.1268 29.417 13.0862 29.3259 13.0358 29.2495C12.9838 29.1731 12.9187 29.1146 12.8358 29.0739C12.7545 29.0333 12.6586 29.0138 12.5529 29.0138C12.4131 29.0138 12.2749 29.0625 12.1367 29.1617C11.9969 29.2609 11.8522 29.4056 11.701 29.5974V31.7208C11.701 31.7386 11.6961 31.7533 11.6864 31.7663C11.6766 31.7777 11.6636 31.789 11.6425 31.7988C11.6213 31.8069 11.5937 31.8134 11.5579 31.8183C11.5222 31.8232 11.4766 31.8248 11.4197 31.8248C11.3628 31.8248 11.3189 31.8232 11.2832 31.8183C11.2458 31.8134 11.2181 31.8069 11.197 31.7988C11.1759 31.789 11.1596 31.7777 11.1515 31.7663C11.1433 31.7533 11.1401 31.7386 11.1401 31.7208V28.6837C11.1401 28.6658 11.1433 28.6496 11.1498 28.6382C11.1564 28.6268 11.1694 28.6154 11.1905 28.6041C11.2116 28.5943 11.236 28.5878 11.2685 28.5829C11.2994 28.5797 11.3417 28.5781 11.3937 28.5781C11.4457 28.5781 11.4848 28.5781 11.5173 28.5829C11.5498 28.5862 11.5758 28.5927 11.5937 28.6041C11.6116 28.6154 11.6246 28.6268 11.6327 28.6382C11.6392 28.6512 11.6441 28.6658 11.6441 28.6837V29.0853C11.8148 28.8935 11.9839 28.7536 12.1546 28.6642C12.3237 28.5748 12.4944 28.5309 12.6667 28.5309C12.8683 28.5309 13.039 28.565 13.1772 28.6333C13.3154 28.7016 13.4276 28.7943 13.5122 28.9081C13.5983 29.0235 13.6585 29.1568 13.6959 29.3113C13.7333 29.4657 13.7512 29.6511 13.7512 29.8673V31.7208L13.756 31.7191ZM10.1272 31.7191C10.1272 31.737 10.1223 31.7516 10.1126 31.7646C10.1028 31.776 10.0898 31.7874 10.0687 31.7972C10.0475 31.8053 10.0199 31.8118 9.98414 31.8167C9.94837 31.8216 9.90285 31.8232 9.8492 31.8232C9.79229 31.8232 9.74515 31.8216 9.70938 31.8167C9.67198 31.8118 9.64435 31.8053 9.62321 31.7972C9.60207 31.7874 9.58907 31.776 9.57931 31.7646C9.56956 31.7516 9.56468 31.737 9.56468 31.7191V29.9405C9.56468 29.7681 9.55167 29.6267 9.52403 29.5227C9.49802 29.417 9.45738 29.3259 9.40698 29.2495C9.35495 29.1731 9.28992 29.1146 9.207 29.0739C9.12571 29.0333 9.02979 29.0138 8.92411 29.0138C8.78429 29.0138 8.64609 29.0625 8.5079 29.1617C8.36808 29.2609 8.22338 29.4056 8.07218 29.5974V31.7208C8.07218 31.7386 8.0673 31.7533 8.05755 31.7663C8.04779 31.7777 8.03479 31.789 8.01365 31.7988C7.99252 31.8069 7.96488 31.8134 7.92911 31.8183C7.89334 31.8232 7.84782 31.8248 7.79091 31.8248C7.73401 31.8248 7.69011 31.8232 7.65435 31.8183C7.61695 31.8134 7.58931 31.8069 7.56818 31.7988C7.54704 31.789 7.53078 31.7777 7.52265 31.7663C7.51452 31.7533 7.51127 31.7386 7.51127 31.7208V28.6837C7.51127 28.6658 7.51452 28.6496 7.52103 28.6382C7.52753 28.6268 7.54054 28.6154 7.56167 28.6041C7.58281 28.5943 7.6072 28.5878 7.63971 28.5829C7.6706 28.5797 7.71287 28.5781 7.7649 28.5781C7.81693 28.5781 7.85595 28.5781 7.88846 28.5829C7.92098 28.5862 7.94699 28.5927 7.96488 28.6041C7.98276 28.6154 7.99577 28.6268 8.0039 28.6382C8.0104 28.6512 8.01528 28.6658 8.01528 28.6837V29.0853C8.18599 28.8935 8.35507 28.7536 8.52578 28.6642C8.69487 28.5748 8.86558 28.5309 9.03792 28.5309C9.23952 28.5309 9.41023 28.565 9.54842 28.6333C9.68662 28.7016 9.79717 28.7943 9.88334 28.9081C9.96951 29.0235 10.0297 29.1568 10.0671 29.3113C10.1045 29.4657 10.1223 29.6511 10.1223 29.8673V31.7208L10.1272 31.7191ZM6.11307 30.199C6.11307 30.0348 6.09844 29.8787 6.06755 29.7324C6.03666 29.5861 5.98626 29.4592 5.91635 29.3487C5.84644 29.2381 5.75214 29.1503 5.63183 29.0869C5.51314 29.0219 5.36357 28.9894 5.18473 28.9894C5.02052 28.9894 4.87908 29.0186 4.76039 29.0772C4.64171 29.1357 4.54416 29.2186 4.46774 29.3259C4.39133 29.4332 4.33443 29.56 4.29703 29.7064C4.25801 29.8527 4.24013 30.012 4.24013 30.186C4.24013 30.3599 4.25476 30.5095 4.28565 30.6558C4.31654 30.8022 4.36694 30.929 4.43848 31.0395C4.51002 31.1485 4.60594 31.2346 4.72462 31.298C4.84493 31.3631 4.99288 31.3956 5.17172 31.3956C5.3343 31.3956 5.47412 31.3663 5.59444 31.3078C5.71475 31.2493 5.81229 31.168 5.88871 31.0607C5.96675 30.955 6.02203 30.8282 6.05779 30.6819C6.09356 30.5355 6.11144 30.3746 6.11144 30.199H6.11307ZM6.69186 30.1648C6.69186 30.412 6.65935 30.6396 6.59431 30.8493C6.52928 31.0574 6.43173 31.2363 6.30329 31.3875C6.17323 31.5387 6.01227 31.6557 5.8188 31.7403C5.6237 31.8248 5.39934 31.8671 5.14246 31.8671C4.88558 31.8671 4.67422 31.8297 4.48888 31.7549C4.30354 31.6801 4.14908 31.5728 4.02552 31.4314C3.90196 31.2899 3.81091 31.1176 3.74913 30.916C3.68735 30.7127 3.65809 30.4851 3.65809 30.2266C3.65809 29.9681 3.6906 29.7519 3.75401 29.5438C3.81904 29.3357 3.91497 29.1552 4.04341 29.0056C4.17185 28.8544 4.3328 28.739 4.52627 28.6545C4.71975 28.5715 4.94573 28.5293 5.20261 28.5293C5.45949 28.5293 5.66922 28.5667 5.85619 28.6415C6.04153 28.7146 6.19599 28.8235 6.31955 28.965C6.44311 29.1064 6.53578 29.2788 6.59756 29.4804C6.65935 29.6836 6.69024 29.9112 6.69024 30.1665L6.69186 30.1648ZM3.16872 31.1875C3.16872 31.2233 3.16872 31.2541 3.16546 31.2818C3.16221 31.3078 3.15896 31.3306 3.15408 31.3517C3.14921 31.3712 3.14108 31.3907 3.13295 31.4053C3.12319 31.42 3.10694 31.4395 3.0858 31.4622C3.06304 31.485 3.01589 31.5192 2.94435 31.5663C2.87119 31.6118 2.78177 31.6573 2.67609 31.7012C2.56879 31.7451 2.44685 31.7825 2.30866 31.8118C2.16884 31.8427 2.01926 31.8573 1.85343 31.8573C1.57054 31.8573 1.31366 31.8102 1.08605 31.7159C0.858431 31.6216 0.663333 31.4834 0.502377 31.2964C0.341422 31.1127 0.217859 30.8851 0.130065 30.6136C0.0438971 30.3421 0 30.0299 0 29.6771C0 29.3243 0.0471487 28.991 0.13982 28.7081C0.234118 28.4252 0.364183 28.1846 0.533268 27.9879C0.702353 27.7912 0.903954 27.6416 1.1397 27.5375C1.37382 27.4335 1.63557 27.3814 1.92172 27.3814C2.04853 27.3814 2.17209 27.3928 2.28915 27.4156C2.40946 27.44 2.52002 27.4692 2.62082 27.505C2.72162 27.5408 2.81266 27.5814 2.8907 27.6286C2.96874 27.6741 3.02402 27.7147 3.05491 27.744C3.0858 27.7733 3.10531 27.7977 3.11506 27.8139C3.12482 27.8285 3.13132 27.8464 3.13783 27.8692C3.1427 27.8903 3.14758 27.9163 3.15083 27.9456C3.15408 27.9749 3.15571 28.0106 3.15571 28.0513C3.15571 28.0968 3.15246 28.1358 3.14921 28.1667C3.14433 28.1992 3.13783 28.2253 3.12807 28.248C3.11994 28.2691 3.10856 28.2854 3.09555 28.2952C3.08417 28.3049 3.06792 28.3098 3.05003 28.3098C3.01752 28.3098 2.97362 28.2887 2.91671 28.2448C2.85981 28.2009 2.78828 28.1521 2.69723 28.1001C2.60781 28.0464 2.49888 27.9993 2.37207 27.9554C2.24363 27.9115 2.0908 27.8903 1.91196 27.8903C1.71524 27.8903 1.53802 27.9293 1.38032 28.0058C1.21936 28.0838 1.08279 28.1992 0.970613 28.3488C0.856805 28.5 0.769011 28.6837 0.70723 28.9016C0.645449 29.1194 0.612933 29.3682 0.612933 29.6462C0.612933 29.9242 0.643823 30.1697 0.702353 30.3811C0.762508 30.5941 0.848676 30.7729 0.960858 30.916C1.07304 31.059 1.20961 31.1663 1.37219 31.2411C1.5364 31.3143 1.72011 31.3501 1.92659 31.3501C2.10056 31.3501 2.25338 31.3273 2.38345 31.285C2.51351 31.2428 2.62407 31.1956 2.71511 31.142C2.80779 31.0883 2.88257 31.0412 2.9411 30.9989C3.00126 30.9566 3.04678 30.9339 3.08092 30.9339C3.09718 30.9339 3.11181 30.9371 3.12319 30.9436C3.13457 30.9501 3.1427 30.9631 3.14921 30.981C3.15571 31.0005 3.16221 31.0282 3.16546 31.0607C3.16872 31.0948 3.17034 31.1371 3.17034 31.1891L3.16872 31.1875Z" fill="#F4F5F5"/>
    <path d="M82.7137 31.7199C82.7137 31.7377 82.7089 31.7524 82.6991 31.7654C82.6893 31.7768 82.6763 31.7881 82.6552 31.7979C82.6341 31.806 82.6064 31.8125 82.5707 31.8174C82.5349 31.8223 82.4894 31.8239 82.4357 31.8239C82.3788 31.8239 82.3317 31.8223 82.2959 31.8174C82.2585 31.8125 82.2309 31.806 82.2097 31.7979C82.1886 31.7881 82.1756 31.7768 82.1658 31.7654C82.1561 31.7524 82.1512 31.7377 82.1512 31.7199V29.9412C82.1512 29.7689 82.1382 29.6274 82.1106 29.5234C82.0845 29.4177 82.0439 29.3267 81.9935 29.2502C81.9415 29.1738 81.8764 29.1153 81.7935 29.0747C81.7122 29.034 81.6163 29.0145 81.5106 29.0145C81.3708 29.0145 81.2326 29.0633 81.0944 29.1625C80.9546 29.2616 80.8099 29.4063 80.6587 29.5982V31.7215C80.6587 31.7394 80.6538 31.754 80.6441 31.767C80.6343 31.7784 80.6213 31.7898 80.6002 31.7995C80.579 31.8077 80.5514 31.8142 80.5156 31.819C80.4799 31.8239 80.4343 31.8255 80.3774 31.8255C80.3205 31.8255 80.2766 31.8239 80.2409 31.819C80.2035 31.8142 80.1758 31.8077 80.1547 31.7995C80.1336 31.7898 80.1173 31.7784 80.1092 31.767C80.101 31.754 80.0978 31.7394 80.0978 31.7215V28.6845C80.0978 28.6666 80.101 28.6503 80.1075 28.6389C80.1141 28.6276 80.1271 28.6162 80.1482 28.6048C80.1693 28.595 80.1937 28.5885 80.2262 28.5837C80.2571 28.5804 80.2994 28.5788 80.3514 28.5788C80.4034 28.5788 80.4425 28.5788 80.475 28.5837C80.5075 28.5869 80.5335 28.5934 80.5514 28.6048C80.5693 28.6162 80.5823 28.6276 80.5904 28.6389C80.5969 28.6519 80.6018 28.6666 80.6018 28.6845V29.086C80.7725 28.8942 80.9416 28.7544 81.1123 28.665C81.2814 28.5755 81.4521 28.5316 81.6244 28.5316C81.826 28.5316 81.9967 28.5658 82.1349 28.6341C82.2731 28.7023 82.3837 28.795 82.4699 28.9088C82.556 29.0243 82.6162 29.1576 82.6536 29.312C82.691 29.4665 82.7089 29.6518 82.7089 29.8681V31.7215L82.7137 31.7199ZM78.5273 30.3314H78.0525C77.8997 30.3314 77.768 30.3444 77.6558 30.3704C77.5436 30.3964 77.451 30.4355 77.3762 30.4859C77.303 30.5363 77.2477 30.5964 77.212 30.668C77.1778 30.7395 77.1599 30.8208 77.1599 30.9135C77.1599 31.0712 77.2103 31.1963 77.3095 31.289C77.4103 31.3833 77.5485 31.4305 77.729 31.4305C77.8737 31.4305 78.0102 31.3931 78.1338 31.3183C78.259 31.2435 78.3891 31.1297 78.5256 30.9769V30.3314H78.5273ZM79.08 31.7231C79.08 31.7491 79.0703 31.7703 79.054 31.7849C79.0361 31.7979 79.0117 31.8077 78.9792 31.8142C78.9483 31.8207 78.9012 31.8239 78.841 31.8239C78.7809 31.8239 78.7354 31.8207 78.7012 31.8142C78.6671 31.8077 78.6411 31.7979 78.6248 31.7849C78.6085 31.7703 78.6004 31.7508 78.6004 31.7231V31.4191C78.4687 31.5605 78.3208 31.6711 78.1566 31.7491C77.9924 31.8272 77.82 31.8662 77.6379 31.8662C77.4786 31.8662 77.3339 31.8451 77.2038 31.8044C77.0754 31.7621 76.9648 31.702 76.8738 31.6239C76.7828 31.5459 76.7112 31.4484 76.6608 31.3345C76.6104 31.2191 76.5844 31.089 76.5844 30.9427C76.5844 30.7704 76.6185 30.6224 76.6901 30.4972C76.7584 30.3704 76.8592 30.2648 76.9909 30.1835C77.1209 30.1006 77.2803 30.0371 77.4705 29.9965C77.6591 29.9542 77.8721 29.9347 78.1078 29.9347H78.5273V29.6973C78.5273 29.5803 78.5143 29.4762 78.4899 29.3868C78.4639 29.2974 78.4248 29.2226 78.3695 29.1625C78.3143 29.1023 78.2427 29.0568 78.1549 29.0275C78.0671 28.9966 77.9598 28.982 77.8314 28.982C77.6948 28.982 77.5713 28.9982 77.4623 29.0308C77.3534 29.0649 77.2575 29.1007 77.1762 29.1397C77.0949 29.1803 77.025 29.2161 76.9697 29.2486C76.9161 29.2828 76.8738 29.299 76.8478 29.299C76.8299 29.299 76.8136 29.2941 76.8006 29.2844C76.7876 29.2763 76.7746 29.2633 76.7649 29.2437C76.7551 29.2259 76.747 29.2031 76.7437 29.1755C76.7389 29.1462 76.7372 29.1169 76.7372 29.0828C76.7372 29.0275 76.7405 28.982 76.7486 28.9495C76.7567 28.917 76.7763 28.8861 76.8071 28.8568C76.8364 28.8275 76.8901 28.7934 76.9632 28.7527C77.0364 28.7137 77.1225 28.6763 77.2201 28.6438C77.316 28.6113 77.4217 28.5837 77.5371 28.5625C77.6509 28.5398 77.768 28.53 77.8834 28.53C78.1013 28.53 78.2866 28.5544 78.4395 28.6032C78.5923 28.6536 78.7158 28.7267 78.8101 28.8227C78.9044 28.9186 78.9727 29.0373 79.015 29.1787C79.0573 29.3202 79.08 29.486 79.08 29.6746V31.7247V31.7231ZM74.4367 30.8907C74.4367 31.0468 74.4074 31.185 74.3505 31.3069C74.292 31.4288 74.2123 31.5313 74.1067 31.6126C74.001 31.6955 73.8742 31.7589 73.7295 31.8012C73.5831 31.8434 73.4222 31.8662 73.2466 31.8662C73.1377 31.8662 73.0352 31.8581 72.9377 31.8402C72.8401 31.8239 72.7524 31.8028 72.6743 31.7768C72.5963 31.7508 72.5312 31.7247 72.4776 31.6971C72.4239 31.6695 72.3849 31.6435 72.3605 31.6223C72.3361 31.6012 72.3166 31.5687 72.3069 31.528C72.2955 31.4874 72.289 31.4321 72.289 31.3622C72.289 31.3199 72.2922 31.2841 72.2955 31.2549C72.3004 31.224 72.3053 31.2012 72.3118 31.1833C72.3183 31.1655 72.3296 31.1525 72.341 31.1443C72.354 31.1362 72.367 31.1329 72.3833 31.1329C72.4077 31.1329 72.4451 31.1476 72.4922 31.1785C72.541 31.2094 72.6012 31.2419 72.6711 31.2776C72.741 31.3134 72.8255 31.3476 72.9214 31.3768C73.019 31.4077 73.1295 31.4223 73.2547 31.4223C73.349 31.4223 73.4352 31.4126 73.51 31.3914C73.588 31.3719 73.6531 31.3411 73.71 31.302C73.7669 31.263 73.8091 31.2126 73.84 31.1508C73.8709 31.089 73.8855 31.0175 73.8855 30.933C73.8855 30.8484 73.8644 30.7753 73.8205 30.7184C73.7766 30.6598 73.7197 30.6078 73.6482 30.5623C73.575 30.5168 73.4954 30.4777 73.4059 30.442C73.3165 30.4078 73.2238 30.3704 73.1295 30.333C73.0352 30.294 72.9409 30.2518 72.8515 30.203C72.7605 30.1542 72.6792 30.0957 72.6077 30.0258C72.5361 29.9559 72.4792 29.8729 72.4353 29.777C72.3914 29.6795 72.3703 29.564 72.3703 29.4291C72.3703 29.3104 72.3931 29.1966 72.4386 29.0877C72.4841 28.9787 72.554 28.8828 72.6467 28.8015C72.741 28.7202 72.8548 28.6536 72.993 28.6032C73.1312 28.5544 73.2921 28.53 73.4775 28.53C73.5588 28.53 73.6384 28.5365 73.7213 28.5511C73.801 28.5642 73.8742 28.5837 73.9408 28.6032C74.0059 28.6243 74.0611 28.6471 74.1083 28.6715C74.1538 28.6975 74.1896 28.717 74.214 28.7365C74.2383 28.7544 74.253 28.7706 74.2611 28.7836C74.2692 28.7983 74.2741 28.8129 74.279 28.8292C74.2822 28.8454 74.2855 28.8666 74.2887 28.8909C74.292 28.917 74.2936 28.9462 74.2936 28.982C74.2936 29.0194 74.2936 29.0535 74.2887 29.0812C74.2855 29.1088 74.279 29.1316 74.2709 29.1494C74.2627 29.1673 74.253 29.1803 74.2416 29.1885C74.2302 29.1966 74.2172 29.1998 74.2042 29.1998C74.1831 29.1998 74.1538 29.1868 74.1148 29.1625C74.0774 29.1381 74.027 29.1121 73.9668 29.0828C73.9051 29.0535 73.8335 29.0275 73.7522 29.0031C73.6709 28.9787 73.5766 28.9657 73.471 28.9657C73.3767 28.9657 73.2921 28.9755 73.2206 28.9982C73.1474 29.0194 73.0889 29.0486 73.0434 29.0877C72.9979 29.1267 72.9621 29.1722 72.9377 29.2275C72.9133 29.2811 72.9019 29.3397 72.9019 29.4015C72.9019 29.4892 72.9247 29.5624 72.9702 29.6226C73.0157 29.6827 73.0726 29.7347 73.1458 29.7786C73.2173 29.8242 73.3003 29.8632 73.3913 29.9006C73.484 29.9363 73.5766 29.9737 73.6726 30.0111C73.7685 30.0502 73.8628 30.0924 73.9555 30.1412C74.0498 30.1883 74.1327 30.2452 74.2026 30.3119C74.2757 30.3802 74.3326 30.4615 74.3765 30.5558C74.4204 30.6501 74.4416 30.7639 74.4416 30.8923L74.4367 30.8907ZM71.1168 29.9038C71.1233 29.6112 71.0599 29.3803 70.9217 29.2145C70.7851 29.047 70.5835 28.9641 70.3153 28.9641C70.1771 28.9641 70.0568 28.9901 69.9527 29.0421C69.8486 29.0942 69.7625 29.1625 69.6926 29.2502C69.6227 29.3348 69.5674 29.4356 69.53 29.5478C69.4926 29.6616 69.4698 29.7803 69.465 29.9054H71.1168V29.9038ZM71.6777 30.068C71.6777 30.1558 71.6549 30.2176 71.611 30.2566C71.5671 30.294 71.5167 30.3119 71.4598 30.3119H69.465C69.465 30.481 69.4828 30.6322 69.5154 30.7671C69.5479 30.9037 69.6048 31.0191 69.6844 31.1151C69.7625 31.2126 69.8649 31.2858 69.9901 31.3378C70.1169 31.3898 70.2714 31.4158 70.4534 31.4158C70.5981 31.4158 70.7266 31.4045 70.8371 31.3801C70.951 31.3573 71.0485 31.3313 71.1298 31.302C71.2111 31.2728 71.2794 31.2468 71.333 31.224C71.3867 31.1996 71.4257 31.1882 71.4533 31.1882C71.4696 31.1882 71.4842 31.1915 71.4956 31.1996C71.507 31.2077 71.5167 31.2191 71.5232 31.2354C71.5297 31.25 71.5362 31.2728 71.5395 31.3004C71.5427 31.3297 71.5444 31.3622 71.5444 31.4028C71.5444 31.4321 71.5444 31.4565 71.5411 31.4792C71.5395 31.5004 71.5362 31.5199 71.533 31.5361C71.5297 31.554 71.5232 31.5687 71.5151 31.5833C71.507 31.5963 71.4972 31.6077 71.4858 31.6207C71.4728 31.6337 71.4354 31.6532 71.3769 31.6808C71.3151 31.7101 71.2371 31.7361 71.1412 31.7638C71.0436 31.7898 70.9331 31.8142 70.8063 31.8353C70.6794 31.8581 70.5445 31.8678 70.4014 31.8678C70.1527 31.8678 69.9348 31.8337 69.7462 31.7621C69.5576 31.6939 69.4015 31.5898 69.2731 31.4532C69.1447 31.315 69.0487 31.1443 68.9837 30.9362C68.9187 30.7297 68.8862 30.4891 68.8862 30.2144C68.8862 29.9542 68.9203 29.7185 68.987 29.5104C69.0536 29.3023 69.1528 29.1267 69.278 28.9804C69.4048 28.8357 69.5592 28.7251 69.7381 28.6471C69.9186 28.5707 70.1185 28.53 70.3413 28.53C70.5786 28.53 70.7819 28.5674 70.9493 28.6454C71.1168 28.7219 71.2533 28.8259 71.3623 28.9544C71.4696 29.0828 71.5493 29.2356 71.5997 29.4096C71.6501 29.5835 71.6761 29.7705 71.6761 29.9689V30.0697L71.6777 30.068ZM68.4293 31.4939C68.4293 31.5589 68.4244 31.6109 68.4147 31.65C68.4065 31.6873 68.3935 31.7166 68.374 31.7345C68.3561 31.7524 68.3285 31.7703 68.2927 31.7849C68.257 31.8012 68.2147 31.8142 68.1692 31.8239C68.1237 31.8337 68.0749 31.8418 68.0229 31.8499C67.9708 31.8564 67.9204 31.8597 67.8684 31.8597C67.7107 31.8597 67.5758 31.8385 67.4652 31.7979C67.353 31.7573 67.2603 31.6938 67.1888 31.6093C67.1173 31.5248 67.0653 31.4175 67.0327 31.289C67.0002 31.1606 66.984 31.0078 66.984 30.8338V29.0633H66.5564C66.5238 29.0633 66.4962 29.0454 66.4751 29.0096C66.4556 28.9739 66.4458 28.9153 66.4458 28.834C66.4458 28.7918 66.4474 28.756 66.4539 28.7267C66.4604 28.6958 66.4686 28.6731 66.4751 28.6536C66.4848 28.6357 66.4978 28.6211 66.5108 28.6129C66.5255 28.6048 66.5417 28.6015 66.5612 28.6015H66.9856V27.8797C66.9856 27.8634 66.9888 27.8488 66.997 27.8358C67.0051 27.8212 67.0197 27.8098 67.0425 27.8C67.0636 27.7903 67.0913 27.7821 67.1287 27.7773C67.1644 27.7724 67.2099 27.7708 67.2652 27.7708C67.3205 27.7708 67.3677 27.7724 67.4034 27.7773C67.4408 27.7821 67.4685 27.7886 67.4896 27.8C67.5107 27.8098 67.5237 27.8212 67.5335 27.8358C67.5432 27.8488 67.5465 27.8634 67.5465 27.8797V28.6015H68.3204C68.3383 28.6015 68.3545 28.6048 68.3675 28.6129C68.3805 28.6211 68.3919 28.6357 68.4017 28.6536C68.413 28.6731 68.4196 28.6975 68.4244 28.7267C68.4293 28.756 68.4309 28.7918 68.4309 28.834C68.4309 28.9153 68.4196 28.9739 68.4 29.0096C68.3789 29.0454 68.3529 29.0633 68.3188 29.0633H67.5449V30.7525C67.5449 30.9606 67.5758 31.1183 67.6375 31.224C67.6993 31.3313 67.8099 31.3849 67.9676 31.3849C68.018 31.3849 68.0635 31.3801 68.1041 31.3703C68.1448 31.3606 68.1806 31.3492 68.2115 31.3378C68.2423 31.3264 68.2684 31.3167 68.2911 31.3053C68.3139 31.2955 68.3334 31.2906 68.3513 31.2906C68.3626 31.2906 68.3724 31.2923 68.3838 31.2988C68.3935 31.3053 68.4017 31.315 68.4065 31.3313C68.413 31.3476 68.4163 31.3687 68.4212 31.3963C68.4261 31.4223 68.4277 31.4565 68.4277 31.4971L68.4293 31.4939ZM65.4784 29.9038C65.485 29.6112 65.4215 29.3803 65.2834 29.2145C65.1468 29.047 64.9452 28.9641 64.6769 28.9641C64.5387 28.9641 64.4184 28.9901 64.3144 29.0421C64.2103 29.0942 64.1241 29.1625 64.0542 29.2502C63.9843 29.3348 63.929 29.4356 63.8917 29.5478C63.8543 29.6616 63.8315 29.7803 63.8266 29.9054H65.4768L65.4784 29.9038ZM66.0377 30.068C66.0377 30.1558 66.015 30.2176 65.9711 30.2566C65.9272 30.294 65.8768 30.3119 65.8199 30.3119H63.825C63.825 30.481 63.8429 30.6322 63.8754 30.7671C63.9079 30.9037 63.9648 31.0191 64.0445 31.1151C64.1225 31.2126 64.2249 31.2858 64.3501 31.3378C64.4769 31.3898 64.6314 31.4158 64.8135 31.4158C64.9582 31.4158 65.0866 31.4045 65.1972 31.3801C65.311 31.3573 65.4085 31.3313 65.4898 31.302C65.5711 31.2728 65.6394 31.2468 65.6931 31.224C65.7467 31.1996 65.7857 31.1882 65.8134 31.1882C65.8296 31.1882 65.8443 31.1915 65.8556 31.1996C65.867 31.2077 65.8768 31.2191 65.8833 31.2354C65.8898 31.25 65.8963 31.2728 65.8995 31.3004C65.9028 31.3297 65.9044 31.3622 65.9044 31.4028C65.9044 31.4321 65.9044 31.4565 65.9012 31.4792C65.8995 31.5004 65.8963 31.5199 65.893 31.5361C65.8898 31.554 65.8833 31.5687 65.8751 31.5833C65.867 31.5963 65.8573 31.6077 65.8459 31.6207C65.8329 31.6337 65.7955 31.6532 65.737 31.6808C65.6752 31.7101 65.5971 31.7361 65.5012 31.7638C65.4037 31.7898 65.2931 31.8142 65.1663 31.8353C65.0395 31.8581 64.9045 31.8678 64.7615 31.8678C64.5111 31.8678 64.2949 31.8337 64.1063 31.7621C63.9177 31.6939 63.7616 31.5898 63.6332 31.4532C63.5047 31.315 63.4088 31.1443 63.3438 30.9362C63.2787 30.7297 63.2462 30.4891 63.2462 30.2144C63.2462 29.9542 63.2803 29.7185 63.347 29.5104C63.4137 29.3023 63.5128 29.1267 63.638 28.9804C63.7648 28.8357 63.9193 28.7251 64.0981 28.6471C64.2786 28.5707 64.4786 28.53 64.7013 28.53C64.9403 28.53 65.1419 28.5674 65.3094 28.6454C65.4768 28.7219 65.6134 28.8259 65.7223 28.9544C65.8296 29.0828 65.9093 29.2356 65.9597 29.4096C66.0101 29.5835 66.0361 29.7705 66.0361 29.9689V30.0697L66.0377 30.068ZM62.4284 31.7199C62.4284 31.7377 62.4235 31.7524 62.4138 31.7654C62.404 31.7768 62.391 31.7881 62.3699 31.7979C62.3488 31.806 62.3211 31.8125 62.2853 31.8174C62.2496 31.8223 62.2041 31.8239 62.1472 31.8239C62.0902 31.8239 62.0464 31.8223 62.0106 31.8174C61.9732 31.8125 61.9456 31.806 61.9244 31.7979C61.9033 31.7881 61.887 31.7768 61.8789 31.7654C61.8708 31.7524 61.8675 31.7377 61.8675 31.7199V27.2147C61.8675 27.1968 61.8708 27.1806 61.8789 27.1676C61.887 27.1546 61.9017 27.1416 61.9244 27.1334C61.9456 27.1253 61.9748 27.1188 62.0106 27.1139C62.0464 27.109 62.0919 27.1074 62.1472 27.1074C62.2024 27.1074 62.2496 27.109 62.2853 27.1139C62.3227 27.1188 62.3504 27.1253 62.3699 27.1334C62.391 27.1432 62.404 27.1546 62.4138 27.1676C62.4235 27.1806 62.4284 27.1968 62.4284 27.2147V31.7199ZM60.8514 31.7199C60.8514 31.7377 60.8465 31.7524 60.8367 31.7654C60.827 31.7768 60.814 31.7881 60.7928 31.7979C60.7717 31.806 60.7441 31.8125 60.7083 31.8174C60.6725 31.8223 60.627 31.8239 60.5734 31.8239C60.5165 31.8239 60.4693 31.8223 60.4335 31.8174C60.3961 31.8125 60.3685 31.806 60.3474 31.7979C60.3262 31.7881 60.3132 31.7768 60.3035 31.7654C60.2937 31.7524 60.2888 31.7377 60.2888 31.7199V29.9412C60.2888 29.7689 60.2758 29.6274 60.2482 29.5234C60.2222 29.4177 60.1815 29.3267 60.1311 29.2502C60.0791 29.1738 60.0141 29.1153 59.9312 29.0747C59.8499 29.034 59.754 29.0145 59.6483 29.0145C59.5085 29.0145 59.3703 29.0633 59.2321 29.1625C59.0922 29.2616 58.9475 29.4063 58.7963 29.5982V31.7215C58.7963 31.7394 58.7915 31.754 58.7817 31.767C58.772 31.7784 58.7589 31.7898 58.7378 31.7995C58.7167 31.8077 58.689 31.8142 58.6533 31.819C58.6175 31.8239 58.572 31.8255 58.5151 31.8255C58.4582 31.8255 58.4143 31.8239 58.3785 31.819C58.3411 31.8142 58.3135 31.8077 58.2923 31.7995C58.2712 31.7898 58.2549 31.7784 58.2468 31.767C58.2387 31.754 58.2354 31.7394 58.2354 31.7215V27.2164C58.2354 27.1985 58.2387 27.1822 58.2468 27.1692C58.2549 27.1562 58.2696 27.1432 58.2923 27.1351C58.3135 27.1269 58.3427 27.1204 58.3785 27.1156C58.4143 27.1107 58.4598 27.109 58.5151 27.109C58.5704 27.109 58.6175 27.1107 58.6533 27.1156C58.6907 27.1204 58.7183 27.1269 58.7378 27.1351C58.7589 27.1448 58.772 27.1562 58.7817 27.1692C58.7915 27.1822 58.7963 27.1985 58.7963 27.2164V29.0308C58.9557 28.8617 59.1166 28.7365 59.2776 28.6552C59.4385 28.5739 59.6011 28.5316 59.7637 28.5316C59.9669 28.5316 60.136 28.5658 60.2742 28.6341C60.4124 28.7023 60.523 28.795 60.6091 28.9088C60.6953 29.0243 60.7555 29.1576 60.7928 29.312C60.8302 29.4665 60.8481 29.6534 60.8481 29.8713V31.7215L60.8514 31.7199ZM57.5006 31.4939C57.5006 31.5589 57.4957 31.6109 57.4859 31.65C57.4778 31.6873 57.4648 31.7166 57.4453 31.7345C57.4274 31.7524 57.3998 31.7703 57.364 31.7849C57.3282 31.8012 57.286 31.8142 57.2404 31.8239C57.1949 31.8337 57.1461 31.8418 57.0941 31.8499C57.0421 31.8564 56.9917 31.8597 56.9397 31.8597C56.782 31.8597 56.647 31.8385 56.5365 31.7979C56.4243 31.7573 56.3316 31.6938 56.2601 31.6093C56.1885 31.5248 56.1365 31.4175 56.104 31.289C56.0715 31.1606 56.0552 31.0078 56.0552 30.8338V29.0633H55.6276C55.5951 29.0633 55.5675 29.0454 55.5463 29.0096C55.5268 28.9739 55.5171 28.9153 55.5171 28.834C55.5171 28.7918 55.5187 28.756 55.5252 28.7267C55.5317 28.6958 55.5398 28.6731 55.5463 28.6536C55.5561 28.6357 55.5691 28.6211 55.5821 28.6129C55.5967 28.6048 55.613 28.6015 55.6325 28.6015H56.0568V27.8797C56.0568 27.8634 56.0601 27.8488 56.0682 27.8358C56.0764 27.8212 56.091 27.8098 56.1137 27.8C56.1349 27.7903 56.1625 27.7821 56.1999 27.7773C56.2357 27.7724 56.2812 27.7708 56.3365 27.7708C56.3918 27.7708 56.4389 27.7724 56.4747 27.7773C56.5121 27.7821 56.5397 27.7886 56.5608 27.8C56.582 27.8098 56.595 27.8212 56.6047 27.8358C56.6145 27.8488 56.6177 27.8634 56.6177 27.8797V28.6015H57.3916C57.4095 28.6015 57.4258 28.6048 57.4388 28.6129C57.4518 28.6211 57.4632 28.6357 57.4729 28.6536C57.4843 28.6731 57.4908 28.6975 57.4957 28.7267C57.5006 28.756 57.5022 28.7918 57.5022 28.834C57.5022 28.9153 57.4908 28.9739 57.4713 29.0096C57.4502 29.0454 57.4242 29.0633 57.39 29.0633H56.6161V30.7525C56.6161 30.9606 56.647 31.1183 56.7088 31.224C56.7706 31.3313 56.8811 31.3849 57.0388 31.3849C57.0892 31.3849 57.1348 31.3801 57.1754 31.3703C57.2161 31.3606 57.2518 31.3492 57.2827 31.3378C57.3136 31.3264 57.3396 31.3167 57.3624 31.3053C57.3851 31.2955 57.4046 31.2906 57.4225 31.2906C57.4339 31.2906 57.4437 31.2923 57.455 31.2988C57.4648 31.3053 57.4729 31.315 57.4778 31.3313C57.4843 31.3476 57.4876 31.3687 57.4924 31.3963C57.4973 31.4223 57.4989 31.4565 57.4989 31.4971L57.5006 31.4939ZM53.5563 28.0179H53.5531L52.802 30.1948H54.3188L53.5563 28.0179ZM55.4342 31.5979C55.452 31.6483 55.4618 31.6873 55.4634 31.7182C55.4634 31.7475 55.4553 31.7703 55.4374 31.7865C55.4195 31.8012 55.3886 31.8125 55.348 31.8174C55.3073 31.8223 55.2521 31.8239 55.1805 31.8239C55.109 31.8239 55.0553 31.8239 55.0131 31.819C54.9708 31.8158 54.9399 31.8093 54.9188 31.8012C54.8976 31.793 54.8814 31.7833 54.8716 31.7686C54.8619 31.7556 54.8521 31.7394 54.8424 31.7182L54.4684 30.655H52.654L52.2963 31.7036C52.2898 31.7247 52.2817 31.741 52.2703 31.7573C52.2589 31.7719 52.2427 31.7833 52.2215 31.7947C52.2004 31.8044 52.1695 31.8125 52.1305 31.8174C52.0915 31.8223 52.0411 31.8239 51.9777 31.8239C51.9143 31.8239 51.859 31.8223 51.8167 31.8158C51.7761 31.8109 51.7452 31.7995 51.7289 31.7833C51.711 31.767 51.7029 31.7443 51.7045 31.7134C51.7045 31.6825 51.7143 31.6434 51.7338 31.593L53.197 27.5366C53.2068 27.5106 53.2182 27.4911 53.2328 27.4749C53.2474 27.4586 53.2686 27.4456 53.2978 27.4375C53.3255 27.4277 53.3612 27.4212 53.4068 27.418C53.4507 27.4147 53.5059 27.4131 53.5742 27.4131C53.6425 27.4131 53.7059 27.4131 53.7531 27.418C53.8002 27.4212 53.8376 27.4277 53.8669 27.4375C53.8961 27.4456 53.9189 27.4602 53.9352 27.4765C53.9514 27.4944 53.9644 27.5139 53.9725 27.5383L55.4374 31.5963L55.4342 31.5979ZM48.952 29.5819C48.8024 29.3949 48.6578 29.2519 48.5163 29.1543C48.3749 29.0568 48.2302 29.0064 48.0773 29.0064C47.9359 29.0064 47.8172 29.0389 47.718 29.1072C47.6189 29.1755 47.5392 29.2633 47.4774 29.3738C47.4156 29.4827 47.3717 29.6096 47.3441 29.7478C47.3148 29.8876 47.3018 30.029 47.3018 30.1721C47.3018 30.3249 47.3132 30.4745 47.3376 30.6208C47.3603 30.7671 47.4026 30.8972 47.4595 31.011C47.5181 31.1248 47.5961 31.2159 47.692 31.2841C47.7879 31.3524 47.9099 31.3866 48.0546 31.3866C48.1277 31.3866 48.1993 31.3768 48.2692 31.3573C48.3375 31.3362 48.4074 31.3037 48.4789 31.2565C48.5504 31.2094 48.6269 31.1476 48.7049 31.0728C48.7829 30.998 48.8659 30.9053 48.9537 30.7948V29.5803L48.952 29.5819ZM49.5113 31.7199C49.5113 31.7377 49.5081 31.7524 49.4999 31.767C49.4918 31.78 49.4788 31.7914 49.4593 31.7995C49.4398 31.8077 49.4138 31.8142 49.3829 31.819C49.3503 31.8239 49.313 31.8255 49.2674 31.8255C49.2219 31.8255 49.1813 31.8239 49.1504 31.819C49.1179 31.8142 49.0918 31.8077 49.0723 31.7995C49.0528 31.7914 49.0382 31.7816 49.0284 31.767C49.0203 31.7524 49.0154 31.7377 49.0154 31.7199V31.315C48.8545 31.489 48.6903 31.6239 48.5179 31.7199C48.3456 31.8174 48.157 31.8646 47.9521 31.8646C47.7294 31.8646 47.5392 31.8207 47.3831 31.7345C47.2254 31.6483 47.097 31.5296 46.9994 31.3833C46.9019 31.2354 46.8303 31.063 46.7864 30.8647C46.7409 30.6647 46.7182 30.4566 46.7182 30.2355C46.7182 29.9754 46.7458 29.738 46.8027 29.5283C46.8596 29.3169 46.9425 29.1381 47.0531 28.9885C47.162 28.8405 47.2986 28.7267 47.4628 28.6471C47.6254 28.5674 47.8123 28.5268 48.0269 28.5268C48.2041 28.5268 48.3667 28.5658 48.5147 28.6438C48.6626 28.7219 48.8073 28.8357 48.9504 28.9869V27.2261C48.9504 27.2099 48.9536 27.1952 48.9618 27.1806C48.9699 27.166 48.9845 27.1546 49.0073 27.1464C49.0284 27.1383 49.0577 27.1318 49.0918 27.1253C49.1276 27.1188 49.1715 27.1172 49.2252 27.1172C49.2788 27.1172 49.3276 27.1188 49.3634 27.1253C49.3991 27.1318 49.4284 27.1383 49.4479 27.1464C49.469 27.1546 49.4837 27.1643 49.495 27.1806C49.5048 27.1952 49.5097 27.2099 49.5097 27.2261V31.7182L49.5113 31.7199ZM45.889 31.7199C45.889 31.7377 45.8841 31.7524 45.8744 31.7654C45.8646 31.7768 45.8516 31.7881 45.8305 31.7979C45.8093 31.806 45.7817 31.8125 45.7459 31.8174C45.7101 31.8223 45.6646 31.8239 45.6077 31.8239C45.5508 31.8239 45.5069 31.8223 45.4711 31.8174C45.4338 31.8125 45.4061 31.806 45.385 31.7979C45.3638 31.7881 45.3476 31.7768 45.3395 31.7654C45.3313 31.7524 45.3281 31.7377 45.3281 31.7199V27.2147C45.3281 27.1968 45.3313 27.1806 45.3395 27.1676C45.3476 27.1546 45.3622 27.1416 45.385 27.1334C45.4061 27.1253 45.4354 27.1188 45.4711 27.1139C45.5069 27.109 45.5524 27.1074 45.6077 27.1074C45.663 27.1074 45.7101 27.109 45.7459 27.1139C45.7833 27.1188 45.8109 27.1253 45.8305 27.1334C45.8516 27.1432 45.8646 27.1546 45.8744 27.1676C45.8841 27.1806 45.889 27.1968 45.889 27.2147V31.7199ZM44.6956 28.8796C44.6956 28.9283 44.6956 28.9706 44.6924 29.0048C44.6908 29.0373 44.6859 29.0649 44.6794 29.0844C44.6729 29.1039 44.6647 29.1186 44.6534 29.1283C44.6436 29.1381 44.6306 29.1429 44.6111 29.1429C44.5916 29.1429 44.5704 29.1381 44.5461 29.1283C44.52 29.1186 44.4908 29.1072 44.4583 29.099C44.4258 29.0893 44.3884 29.0795 44.3477 29.0698C44.3071 29.06 44.2632 29.0552 44.216 29.0552C44.1591 29.0552 44.1038 29.0665 44.0502 29.0893C43.9965 29.1121 43.9396 29.1494 43.8811 29.2015C43.8209 29.2535 43.7592 29.3234 43.6925 29.408C43.6275 29.4941 43.5559 29.5998 43.4779 29.7234V31.7215C43.4779 31.7394 43.473 31.754 43.4633 31.767C43.4535 31.7784 43.4405 31.7898 43.4194 31.7995C43.3982 31.8077 43.3706 31.8142 43.3348 31.819C43.2991 31.8239 43.2535 31.8255 43.1966 31.8255C43.1397 31.8255 43.0958 31.8239 43.0601 31.819C43.0227 31.8142 42.995 31.8077 42.9739 31.7995C42.9528 31.7898 42.9365 31.7784 42.9284 31.767C42.9202 31.754 42.917 31.7394 42.917 31.7215V28.6845C42.917 28.6666 42.9202 28.6503 42.9267 28.6389C42.9332 28.6276 42.9463 28.6162 42.9674 28.6048C42.9885 28.595 43.0129 28.5885 43.0454 28.5837C43.0763 28.5804 43.1186 28.5788 43.1706 28.5788C43.2226 28.5788 43.2617 28.5788 43.2942 28.5837C43.3267 28.5869 43.3527 28.5934 43.3706 28.6048C43.3885 28.6162 43.4015 28.6276 43.4096 28.6389C43.4161 28.6519 43.421 28.6666 43.421 28.6845V29.1267C43.5039 29.0048 43.582 28.9056 43.6551 28.8292C43.7283 28.7527 43.7982 28.6926 43.8616 28.6487C43.9282 28.6048 43.9917 28.5755 44.0551 28.5577C44.1201 28.5398 44.1835 28.5316 44.2502 28.5316C44.2794 28.5316 44.3119 28.5316 44.3493 28.5365C44.3867 28.5398 44.4257 28.5463 44.4664 28.5544C44.507 28.5642 44.5428 28.5739 44.5753 28.5853C44.6078 28.5967 44.6306 28.6081 44.6436 28.6194C44.6582 28.6308 44.6664 28.6406 44.6696 28.6519C44.6745 28.6633 44.6794 28.6747 44.6826 28.691C44.6859 28.7072 44.6875 28.73 44.6891 28.7593C44.6891 28.7901 44.6891 28.8308 44.6891 28.8828L44.6956 28.8796Z" fill="#F4F5F5"/>
    <path d="M105.995 30.8907C105.995 31.0468 105.966 31.185 105.909 31.3069C105.85 31.4289 105.77 31.5313 105.665 31.6126C105.559 31.6955 105.434 31.7589 105.288 31.8012C105.141 31.8434 104.98 31.8662 104.805 31.8662C104.696 31.8662 104.593 31.8581 104.496 31.8402C104.398 31.8239 104.31 31.8028 104.232 31.7768C104.154 31.7508 104.089 31.7248 104.036 31.6971C103.982 31.6695 103.943 31.6435 103.919 31.6223C103.894 31.6012 103.875 31.5687 103.865 31.528C103.854 31.4874 103.847 31.4321 103.847 31.3622C103.847 31.3199 103.85 31.2842 103.854 31.2549C103.859 31.224 103.863 31.2012 103.87 31.1834C103.876 31.1655 103.888 31.1525 103.899 31.1443C103.912 31.1362 103.925 31.133 103.941 31.133C103.966 31.133 104.003 31.1476 104.05 31.1785C104.099 31.2094 104.159 31.2419 104.229 31.2777C104.299 31.3134 104.384 31.3476 104.48 31.3768C104.577 31.4077 104.688 31.4224 104.813 31.4224C104.907 31.4224 104.993 31.4126 105.068 31.3915C105.146 31.372 105.211 31.3411 105.268 31.302C105.325 31.263 105.367 31.2126 105.398 31.1508C105.429 31.0891 105.444 31.0175 105.444 30.933C105.444 30.8484 105.423 30.7753 105.379 30.7184C105.335 30.6598 105.278 30.6078 105.206 30.5623C105.133 30.5168 105.053 30.4778 104.964 30.442C104.875 30.4078 104.782 30.3704 104.688 30.3331C104.593 30.294 104.499 30.2518 104.41 30.203C104.319 30.1542 104.237 30.0957 104.166 30.0258C104.094 29.9559 104.037 29.8729 103.993 29.777C103.95 29.6795 103.928 29.564 103.928 29.4291C103.928 29.3104 103.951 29.1966 103.997 29.0877C104.042 28.9787 104.112 28.8828 104.205 28.8015C104.299 28.7202 104.413 28.6536 104.551 28.6032C104.689 28.5544 104.85 28.53 105.036 28.53C105.117 28.53 105.197 28.5365 105.279 28.5512C105.359 28.5642 105.432 28.5837 105.497 28.6032C105.562 28.6243 105.618 28.6471 105.665 28.6715C105.71 28.6975 105.746 28.717 105.77 28.7365C105.795 28.7544 105.809 28.7706 105.818 28.7836C105.826 28.7983 105.831 28.8129 105.836 28.8292C105.839 28.8454 105.842 28.8666 105.845 28.891C105.849 28.917 105.85 28.9462 105.85 28.982C105.85 29.0194 105.85 29.0535 105.845 29.0812C105.842 29.1088 105.836 29.1316 105.827 29.1495C105.819 29.1673 105.809 29.1804 105.798 29.1885C105.787 29.1966 105.774 29.1999 105.761 29.1999C105.74 29.1999 105.71 29.1869 105.671 29.1625C105.634 29.1381 105.584 29.1121 105.523 29.0828C105.462 29.0535 105.39 29.0275 105.309 29.0031C105.227 28.9787 105.133 28.9657 105.027 28.9657C104.933 28.9657 104.849 28.9755 104.777 28.9983C104.704 29.0194 104.645 29.0487 104.6 29.0877C104.554 29.1267 104.519 29.1722 104.494 29.2275C104.47 29.2812 104.458 29.3397 104.458 29.4015C104.458 29.4893 104.481 29.5624 104.527 29.6226C104.572 29.6827 104.629 29.7348 104.702 29.7786C104.774 29.8242 104.857 29.8632 104.949 29.9006C105.042 29.9364 105.135 29.9737 105.231 30.0111C105.327 30.0502 105.421 30.0924 105.514 30.1412C105.608 30.1884 105.691 30.2453 105.761 30.3119C105.834 30.3802 105.891 30.4615 105.935 30.5558C105.979 30.6501 106 30.7639 106 30.8923M103.35 31.4939C103.35 31.5589 103.345 31.6109 103.335 31.65C103.327 31.6874 103.314 31.7166 103.294 31.7345C103.276 31.7524 103.249 31.7703 103.213 31.7849C103.177 31.8012 103.135 31.8142 103.09 31.8239C103.044 31.8337 102.995 31.8418 102.943 31.8499C102.891 31.8564 102.841 31.8597 102.789 31.8597C102.631 31.8597 102.496 31.8386 102.386 31.7979C102.273 31.7573 102.181 31.6939 102.109 31.6093C102.038 31.5248 101.986 31.4175 101.953 31.289C101.921 31.1606 101.904 31.0078 101.904 30.8338V29.0633H101.477C101.444 29.0633 101.417 29.0454 101.395 29.0096C101.376 28.9739 101.366 28.9153 101.366 28.834C101.366 28.7918 101.368 28.756 101.374 28.7267C101.381 28.6959 101.389 28.6731 101.395 28.6536C101.405 28.6357 101.418 28.6211 101.431 28.6129C101.446 28.6048 101.462 28.6016 101.482 28.6016H101.906V27.8797C101.906 27.8634 101.909 27.8488 101.917 27.8358C101.925 27.8212 101.94 27.8098 101.963 27.8C101.984 27.7903 102.012 27.7821 102.049 27.7773C102.085 27.7724 102.13 27.7708 102.186 27.7708C102.241 27.7708 102.288 27.7724 102.324 27.7773C102.361 27.7821 102.389 27.7887 102.41 27.8C102.431 27.8098 102.444 27.8212 102.454 27.8358C102.464 27.8488 102.467 27.8634 102.467 27.8797V28.6016H103.241C103.259 28.6016 103.275 28.6048 103.288 28.6129C103.301 28.6211 103.312 28.6357 103.322 28.6536C103.333 28.6731 103.34 28.6975 103.345 28.7267C103.35 28.756 103.351 28.7918 103.351 28.834C103.351 28.9153 103.34 28.9739 103.32 29.0096C103.299 29.0454 103.273 29.0633 103.239 29.0633H102.465V30.7525C102.465 30.9606 102.496 31.1183 102.558 31.224C102.62 31.3313 102.73 31.385 102.888 31.385C102.938 31.385 102.984 31.3801 103.024 31.3703C103.065 31.3606 103.101 31.3492 103.132 31.3378C103.163 31.3264 103.189 31.3167 103.211 31.3053C103.234 31.2955 103.254 31.2907 103.272 31.2907C103.283 31.2907 103.293 31.2923 103.304 31.2988C103.314 31.3053 103.322 31.315 103.327 31.3313C103.333 31.3476 103.337 31.3687 103.342 31.3963C103.346 31.4223 103.348 31.4565 103.348 31.4971L103.35 31.4939ZM101.142 28.8796C101.142 28.9283 101.142 28.9706 101.139 29.0048C101.137 29.0373 101.132 29.0649 101.126 29.0844C101.119 29.1039 101.111 29.1186 101.1 29.1283C101.09 29.1381 101.077 29.143 101.057 29.143C101.038 29.143 101.017 29.1381 100.992 29.1283C100.966 29.1186 100.937 29.1072 100.904 29.0991C100.872 29.0893 100.835 29.0795 100.794 29.0698C100.753 29.06 100.709 29.0552 100.662 29.0552C100.605 29.0552 100.55 29.0665 100.496 29.0893C100.443 29.1121 100.386 29.1495 100.327 29.2015C100.267 29.2535 100.205 29.3234 100.139 29.408C100.074 29.4941 100.002 29.5998 99.924 29.7234V31.7215C99.924 31.7394 99.9192 31.754 99.9094 31.767C99.8997 31.7784 99.8866 31.7898 99.8655 31.7995C99.8444 31.8077 99.8167 31.8142 99.781 31.8191C99.7452 31.8239 99.6997 31.8256 99.6428 31.8256C99.5859 31.8256 99.542 31.8239 99.5062 31.8191C99.4688 31.8142 99.4412 31.8077 99.42 31.7995C99.3989 31.7898 99.3826 31.7784 99.3745 31.767C99.3664 31.754 99.3631 31.7394 99.3631 31.7215V28.6845C99.3631 28.6666 99.3664 28.6503 99.3729 28.639C99.3794 28.6276 99.3924 28.6162 99.4135 28.6048C99.4347 28.5951 99.4591 28.5886 99.4916 28.5837C99.5225 28.5804 99.5647 28.5788 99.6168 28.5788C99.6688 28.5788 99.7078 28.5788 99.7403 28.5837C99.7728 28.5869 99.7989 28.5934 99.8167 28.6048C99.8346 28.6162 99.8476 28.6276 99.8558 28.639C99.8623 28.652 99.8671 28.6666 99.8671 28.6845V29.1267C99.9501 29.0048 100.028 28.9056 100.101 28.8292C100.174 28.7528 100.244 28.6926 100.308 28.6487C100.374 28.6048 100.438 28.5755 100.501 28.5577C100.566 28.5398 100.63 28.5316 100.696 28.5316C100.726 28.5316 100.758 28.5316 100.795 28.5365C100.833 28.5398 100.872 28.5463 100.913 28.5544C100.953 28.5642 100.989 28.5739 101.021 28.5853C101.054 28.5967 101.077 28.6081 101.09 28.6194C101.104 28.6308 101.113 28.6406 101.116 28.652C101.121 28.6633 101.126 28.6747 101.129 28.691C101.132 28.7072 101.134 28.73 101.135 28.7593C101.135 28.7902 101.135 28.8308 101.135 28.8828L101.142 28.8796ZM97.9617 30.1997C97.9617 30.0355 97.9471 29.8794 97.9162 29.7331C97.8853 29.5868 97.8349 29.46 97.765 29.3494C97.6951 29.2389 97.6008 29.1511 97.4804 29.0877C97.3618 29.0226 97.2122 28.9901 97.0333 28.9901C96.8691 28.9901 96.7277 29.0194 96.609 29.0779C96.4903 29.1365 96.3928 29.2194 96.3164 29.3267C96.2399 29.434 96.183 29.5608 96.1456 29.7071C96.1066 29.8534 96.0887 30.0128 96.0887 30.1867C96.0887 30.3607 96.1034 30.5103 96.1343 30.6566C96.1652 30.8029 96.2156 30.9297 96.2871 31.0403C96.3586 31.1492 96.4545 31.2354 96.5732 31.2988C96.6935 31.3638 96.8415 31.3963 97.0203 31.3963C97.1829 31.3963 97.3227 31.3671 97.443 31.3085C97.5634 31.25 97.6609 31.1687 97.7373 31.0614C97.8154 30.9557 97.8706 30.8289 97.9064 30.6826C97.9422 30.5363 97.9601 30.3753 97.9601 30.1997H97.9617ZM98.5421 30.1656C98.5421 30.4127 98.5096 30.6403 98.4446 30.8501C98.3795 31.0582 98.282 31.237 98.1535 31.3882C98.0235 31.5394 97.8625 31.6565 97.669 31.741C97.4739 31.8256 97.2496 31.8678 96.9943 31.8678C96.7391 31.8678 96.5261 31.8304 96.3407 31.7556C96.1554 31.6809 96.001 31.5736 95.8774 31.4321C95.7538 31.2907 95.6612 31.1183 95.601 30.9167C95.5392 30.7135 95.51 30.4859 95.51 30.2274C95.51 29.9689 95.5425 29.7526 95.6059 29.5445C95.6709 29.3364 95.7668 29.156 95.8953 29.0064C96.0237 28.8552 96.1847 28.7398 96.3781 28.6552C96.5716 28.5723 96.7976 28.53 97.0561 28.53C97.3146 28.53 97.5227 28.5674 97.7097 28.6422C97.895 28.7154 98.0495 28.8243 98.173 28.9657C98.2966 29.1072 98.3893 29.2795 98.4511 29.4811C98.5128 29.6844 98.5437 29.912 98.5437 30.1672L98.5421 30.1656ZM94.3052 30.216C94.3052 30.0599 94.2938 29.9103 94.2695 29.764C94.2467 29.6193 94.2044 29.4909 94.1475 29.3771C94.0906 29.2633 94.0126 29.1738 93.9167 29.1072C93.8191 29.0389 93.6988 29.0064 93.5557 29.0064C93.4826 29.0064 93.4126 29.0161 93.3427 29.0389C93.2728 29.0617 93.2013 29.0942 93.1298 29.1413C93.0582 29.1869 92.9818 29.2486 92.9038 29.325C92.8257 29.4015 92.7412 29.4941 92.6534 29.6047V30.8127C92.8062 30.9996 92.9509 31.1427 93.0891 31.2435C93.2273 31.3427 93.3704 31.3915 93.5216 31.3915C93.6614 31.3915 93.7801 31.3589 93.8809 31.2907C93.9817 31.2224 94.0613 31.133 94.1231 31.0191C94.1849 30.907 94.2304 30.7818 94.2597 30.6403C94.289 30.5005 94.3036 30.3591 94.3036 30.2176L94.3052 30.216ZM94.8856 30.151C94.8856 30.416 94.8564 30.655 94.7995 30.8679C94.7426 31.0793 94.6596 31.2581 94.5475 31.4061C94.4369 31.554 94.2987 31.6678 94.1361 31.7475C93.9719 31.8272 93.785 31.8678 93.5736 31.8678C93.4842 31.8678 93.4013 31.8581 93.3249 31.8418C93.2468 31.8239 93.1737 31.7963 93.1005 31.7573C93.0273 31.7182 92.9558 31.6711 92.8843 31.6126C92.8111 31.554 92.7363 31.4858 92.655 31.4077V32.9295C92.655 32.9474 92.6501 32.962 92.6404 32.9766C92.6306 32.9896 92.6176 33.0026 92.5965 33.0108C92.5753 33.0189 92.5477 33.0254 92.5119 33.0303C92.4762 33.0352 92.4306 33.0368 92.3737 33.0368C92.3168 33.0368 92.273 33.0352 92.2372 33.0303C92.1998 33.0254 92.1721 33.0189 92.151 33.0108C92.1299 33.001 92.1136 32.9896 92.1055 32.9766C92.0974 32.962 92.0941 32.9474 92.0941 32.9295V28.6861C92.0941 28.665 92.0974 28.6487 92.1039 28.6373C92.1104 28.6259 92.125 28.6146 92.1445 28.6064C92.1656 28.5967 92.19 28.5902 92.2225 28.5869C92.2534 28.5837 92.2925 28.582 92.338 28.582C92.3835 28.582 92.4241 28.582 92.455 28.5869C92.4843 28.5902 92.5103 28.5967 92.5315 28.6048C92.5526 28.6146 92.5656 28.6259 92.5737 28.6373C92.5819 28.6503 92.5851 28.6666 92.5851 28.6861V29.0926C92.6778 28.9983 92.7656 28.917 92.8517 28.8454C92.9363 28.7755 93.0224 28.7186 93.1086 28.6731C93.1948 28.6276 93.2842 28.5918 93.3736 28.5674C93.4647 28.543 93.5606 28.5316 93.6614 28.5316C93.8809 28.5316 94.0678 28.5739 94.2239 28.6601C94.3784 28.7463 94.5052 28.8633 94.6027 29.0113C94.7003 29.1592 94.7718 29.3315 94.8174 29.5299C94.8629 29.7266 94.884 29.9347 94.884 30.1558L94.8856 30.151ZM91.3316 30.5786C91.3316 30.7818 91.2926 30.9639 91.2178 31.1248C91.1414 31.2842 91.0373 31.4191 90.904 31.5313C90.7707 31.6418 90.613 31.7264 90.4325 31.7817C90.2504 31.8386 90.0553 31.8662 89.8456 31.8662C89.6993 31.8662 89.5643 31.8532 89.4391 31.8288C89.314 31.8028 89.2018 31.7719 89.1042 31.7361C89.0067 31.7004 88.9254 31.663 88.8587 31.624C88.7937 31.5849 88.7466 31.5524 88.7205 31.5248C88.6945 31.4988 88.675 31.4646 88.6636 31.4224C88.6506 31.3817 88.6457 31.3248 88.6457 31.2565C88.6457 31.2061 88.6474 31.1655 88.6523 31.133C88.6571 31.1004 88.6636 31.0744 88.6718 31.0549C88.6815 31.0338 88.6929 31.0208 88.7059 31.0126C88.7205 31.0045 88.7352 31.0013 88.7531 31.0013C88.7839 31.0013 88.8295 31.0208 88.8864 31.0582C88.9433 31.0956 89.0164 31.1378 89.1075 31.1834C89.1969 31.2273 89.3058 31.2695 89.4326 31.3085C89.5595 31.3476 89.7058 31.3671 89.8716 31.3671C89.9984 31.3671 90.1139 31.3492 90.2179 31.3167C90.3236 31.2842 90.413 31.237 90.4878 31.1736C90.5642 31.1118 90.6211 31.037 90.6618 30.9476C90.7024 30.8582 90.7235 30.7558 90.7235 30.642C90.7235 30.5184 90.6959 30.4127 90.639 30.3249C90.5821 30.2371 90.5089 30.1607 90.4163 30.0941C90.3236 30.0274 90.2179 29.9672 90.1009 29.912C89.9822 29.8567 89.8619 29.8014 89.7383 29.7429C89.6147 29.686 89.4944 29.6226 89.379 29.551C89.2619 29.4811 89.1563 29.3998 89.0652 29.3055C88.9725 29.2112 88.8978 29.1007 88.8408 28.9722C88.7839 28.8454 88.7547 28.6942 88.7547 28.517C88.7547 28.3398 88.7872 28.1723 88.8539 28.0293C88.9205 27.8878 89.0132 27.7691 89.1302 27.6716C89.2489 27.574 89.3887 27.5009 89.5513 27.4505C89.7155 27.4001 89.8895 27.3741 90.0781 27.3741C90.174 27.3741 90.2716 27.3822 90.3691 27.4001C90.4667 27.418 90.5593 27.4391 90.6455 27.4684C90.7317 27.496 90.8097 27.5285 90.878 27.5627C90.9447 27.5968 90.9902 27.6261 91.0097 27.6472C91.0325 27.67 91.0455 27.6846 91.052 27.6976C91.0585 27.7106 91.0633 27.7269 91.0682 27.7448C91.0731 27.7643 91.0763 27.787 91.078 27.8147C91.0796 27.8407 91.0812 27.8748 91.0812 27.9187C91.0812 27.9594 91.0812 27.9951 91.0763 28.0276C91.0731 28.0585 91.0666 28.0845 91.0601 28.1073C91.0536 28.1284 91.0438 28.1447 91.0324 28.1545C91.0194 28.1642 91.0064 28.1691 90.9902 28.1691C90.9642 28.1691 90.9268 28.1528 90.8731 28.1219C90.8211 28.0894 90.7561 28.0553 90.678 28.0146C90.6016 27.9756 90.5106 27.9399 90.4065 27.9073C90.3025 27.8732 90.1854 27.8569 90.0537 27.8569C89.9334 27.8569 89.8277 27.8732 89.7367 27.9057C89.6473 27.9382 89.5725 27.9821 89.5139 28.0358C89.4554 28.0894 89.4131 28.1528 89.3822 28.2276C89.353 28.3024 89.3383 28.3804 89.3383 28.4634C89.3383 28.5853 89.366 28.6894 89.4229 28.7771C89.4798 28.8649 89.5546 28.9414 89.6473 29.0096C89.7416 29.0779 89.8489 29.1397 89.9675 29.195C90.0862 29.2519 90.2082 29.3072 90.3317 29.3657C90.4553 29.4242 90.5772 29.486 90.6959 29.5543C90.8162 29.6226 90.9219 29.7039 91.0162 29.7982C91.1105 29.8908 91.1853 30.0014 91.2422 30.1282C91.2991 30.255 91.3283 30.4046 91.3283 30.5786H91.3316ZM85.7697 29.5819C85.6201 29.395 85.4754 29.2519 85.334 29.1543C85.1925 29.0568 85.0478 29.0064 84.895 29.0064C84.7535 29.0064 84.6349 29.0389 84.5357 29.1072C84.4365 29.1755 84.3568 29.2633 84.2951 29.3738C84.2333 29.4828 84.1894 29.6096 84.1618 29.7478C84.1325 29.8876 84.1195 30.029 84.1195 30.1721C84.1195 30.3249 84.1309 30.4745 84.1552 30.6208C84.178 30.7671 84.2203 30.8972 84.2772 31.011C84.3357 31.1248 84.4137 31.2159 84.5097 31.2842C84.6056 31.3524 84.7275 31.3866 84.8722 31.3866C84.9454 31.3866 85.0169 31.3768 85.0868 31.3573C85.1551 31.3362 85.225 31.3037 85.2966 31.2565C85.3681 31.2094 85.4445 31.1476 85.5226 31.0728C85.6006 30.998 85.6835 30.9053 85.7713 30.7948V29.5803L85.7697 29.5819ZM86.3273 31.7199C86.3273 31.7378 86.3241 31.7524 86.316 31.767C86.3078 31.78 86.2948 31.7914 86.2753 31.7995C86.2558 31.8077 86.2298 31.8142 86.1989 31.8191C86.1664 31.8239 86.129 31.8256 86.0835 31.8256C86.0379 31.8256 85.9973 31.8239 85.9664 31.8191C85.9339 31.8142 85.9079 31.8077 85.8884 31.7995C85.8689 31.7914 85.8542 31.7817 85.8445 31.767C85.8363 31.7524 85.8315 31.7378 85.8315 31.7199V31.315C85.6705 31.489 85.5063 31.6239 85.334 31.7199C85.1616 31.8174 84.973 31.8646 84.7682 31.8646C84.5454 31.8646 84.3552 31.8207 84.1991 31.7345C84.0414 31.6483 83.913 31.5297 83.8155 31.3833C83.7179 31.2354 83.6464 31.063 83.6025 30.8647C83.5569 30.6647 83.5342 30.4566 83.5342 30.2355C83.5342 29.9754 83.5618 29.738 83.6187 29.5283C83.6756 29.3169 83.7585 29.1381 83.8691 28.9885C83.978 28.8406 84.1146 28.7267 84.2788 28.6471C84.4414 28.5674 84.6284 28.5268 84.843 28.5268C85.0202 28.5268 85.1828 28.5658 85.3307 28.6438C85.4787 28.7219 85.6234 28.8357 85.7664 28.9869V27.2261C85.7664 27.2099 85.7697 27.1952 85.7778 27.1806C85.7859 27.166 85.8006 27.1546 85.8233 27.1465C85.8445 27.1383 85.8737 27.1318 85.9079 27.1253C85.9436 27.1188 85.9875 27.1172 86.0412 27.1172C86.0948 27.1172 86.1436 27.1188 86.1794 27.1253C86.2152 27.1318 86.2444 27.1383 86.2639 27.1465C86.2851 27.1546 86.2997 27.1643 86.3111 27.1806C86.3208 27.1952 86.3257 27.2099 86.3257 27.2261V31.7183L86.3273 31.7199Z" fill="#F4F5F5"/>
</svg>