<svg width="144" height="144" viewBox="0 0 144 144" fill="none" xmlns="http://www.w3.org/2000/svg">
<path fill-rule="evenodd" clip-rule="evenodd" d="M105.48 84.1475H105.52V77.7128H105.48V76.4866C105.48 73.7304 102.924 71.4885 99.812 71.4885H65.7163C62.6179 71.4885 60.0889 69.2574 60.0889 66.5249V56.4576C60.0889 53.7251 62.6179 51.4944 65.7163 51.4944H99.9447C103.003 51.4944 105.506 49.2872 105.506 46.5894V46.4961H105.533V36.4291C105.533 36.3123 105.506 36.2072 105.467 36.1254C105.175 33.8247 103.057 31.9912 100.421 31.7927H100.395C100.249 31.7927 100.104 31.781 99.9578 31.781H43.3389C40.2801 31.781 37.7908 33.9882 37.7908 36.686V37.5268H37.7511V106.839C37.7511 109.572 35.222 111.803 32.1236 111.803H20.723C17.6246 111.803 15.0955 109.572 15.0955 106.839V16.7623C15.0955 14.0295 17.6246 11.7989 20.723 11.7989H32.1236C32.2428 11.7989 32.362 11.7989 32.4811 11.7989H123.156C126.255 11.7989 128.784 14.0295 128.784 16.7623V26.8293C128.784 49.9528 128.876 73.3331 128.876 96.5507V106.617C128.876 109.35 126.348 111.581 123.249 111.581H101.534C96.0778 111.732 90.2392 110.95 86.3992 113.729C80.9832 117.642 71.8734 126.296 65.4648 131.154C62.6709 133.279 60.1551 132.462 60.1551 126.226C60.1551 119.99 60.3801 112.783 60.3801 106.606V96.5385C60.3801 94.0747 62.4458 92.0073 65.1337 91.6338H99.8258C102.95 91.6338 105.493 89.3797 105.493 86.635V84.1597L105.48 84.1475Z" fill="#E67059"/>
<path fill-rule="evenodd" clip-rule="evenodd" d="M17.4267 5.55896C22.1405 4.76486 107.4 5.34878 119.993 5.33707C126.679 5.33707 129.221 5.16194 133.392 8.56039C137.206 11.6785 137.404 14.0843 137.391 19.6434C137.351 39.2516 137.391 58.8719 137.391 78.4799C137.391 87.4726 138.199 99.5016 137.338 108.12C136.914 112.348 133.803 115.489 130.386 117.031C126.136 118.934 120.283 118.292 115.186 118.292C86.9025 118.292 92.7289 118.152 69.2921 137.877C63.3866 142.841 68.3917 144.16 70.0468 143.985C71.7815 143.798 78.9846 136.978 81.2886 135.005C88.6372 128.709 92.7289 123.653 102.223 123.629C111.346 123.606 127.209 124.995 134.081 121.422C142.754 116.914 143.733 111.402 143.733 100.284C143.733 80.8037 143.733 61.3358 143.733 41.8676C143.733 35.2459 144.634 17.8565 143.125 12.5545C141.099 5.44223 133.962 0.0233659 123.846 2.04792e-05H20.6442C10.2235 -0.0116881 3.09979 4.99838 0.875283 12.1574C-0.607726 16.9456 0.239711 34.7437 0.252954 41.0385L0.133778 99.8751C0.133778 105.166 -0.250216 108.319 2.30532 112.71C7.60175 121.808 17.2545 121.574 25.9274 121.574C28.0195 121.574 32.6937 121.796 34.4812 121.539C36.8911 121.2 38.2285 118.561 36.2423 116.961C32.27 113.738 16.182 120.464 8.6478 111.39C4.68872 106.614 6.37033 90.8709 6.37033 83.8285L6.48948 25.4125C6.48948 17.9967 4.4239 7.76621 17.4002 5.57067" fill="#E67059"/>
</svg>
